G04 Layer_Color=8150272*
%FSLAX25Y25*%
%MOIN*%
G70*
G01*
G75*
%ADD28C,0.08674*%
%ADD29R,0.08674X0.08674*%
%ADD30R,0.06706X0.06706*%
%ADD31C,0.06706*%
%ADD32C,0.05918*%
%ADD33C,0.06800*%
%ADD34C,0.07887*%
%ADD35R,0.07887X0.07887*%
%ADD36O,0.05524X0.10642*%
%ADD37R,0.05524X0.10642*%
%ADD38R,0.06902X0.06902*%
%ADD39C,0.06902*%
D28*
X83740Y194724D02*
D03*
X73740D02*
D03*
X83740Y204724D02*
D03*
X73740D02*
D03*
X83740Y214724D02*
D03*
D29*
X73740D02*
D03*
D30*
X222913Y211850D02*
D03*
D31*
X212913D02*
D03*
X202913D02*
D03*
X192913D02*
D03*
X182913D02*
D03*
X172913D02*
D03*
X162913D02*
D03*
X222913Y181850D02*
D03*
X212913D02*
D03*
X202913D02*
D03*
X192913D02*
D03*
X182913D02*
D03*
X172913D02*
D03*
X162913D02*
D03*
D32*
X312008Y141732D02*
D03*
X302165D02*
D03*
X182087D02*
D03*
X172244D02*
D03*
X306102Y326772D02*
D03*
X315945D02*
D03*
X146654Y212598D02*
D03*
X136811D02*
D03*
X115157Y141732D02*
D03*
X105315D02*
D03*
X249016D02*
D03*
X239173D02*
D03*
D33*
X280591Y157480D02*
D03*
X270591D02*
D03*
X208661Y148543D02*
D03*
Y158543D02*
D03*
X141732Y148543D02*
D03*
Y158543D02*
D03*
X297244Y287402D02*
D03*
X324803D02*
D03*
X78740Y148543D02*
D03*
Y158543D02*
D03*
D34*
X224843Y354331D02*
D03*
X234843D02*
D03*
X244843D02*
D03*
X254843D02*
D03*
X264843D02*
D03*
X274843D02*
D03*
X284843D02*
D03*
D35*
X294843D02*
D03*
D36*
X93465Y236772D02*
D03*
X103465D02*
D03*
X113465D02*
D03*
X123465D02*
D03*
X133465D02*
D03*
X143465D02*
D03*
X153465D02*
D03*
X163465D02*
D03*
X173465D02*
D03*
X183465D02*
D03*
X193465D02*
D03*
X203465D02*
D03*
X213465D02*
D03*
X223465D02*
D03*
X233465D02*
D03*
X243465D02*
D03*
X253465D02*
D03*
X263465D02*
D03*
X273465D02*
D03*
X283465D02*
D03*
X93465Y326772D02*
D03*
X103465D02*
D03*
X113465D02*
D03*
X123465D02*
D03*
X133465D02*
D03*
X143465D02*
D03*
X153465D02*
D03*
X163465D02*
D03*
X173465D02*
D03*
X183465D02*
D03*
X193465D02*
D03*
X203465D02*
D03*
X213465D02*
D03*
X223465D02*
D03*
X233465D02*
D03*
X243465D02*
D03*
X253465D02*
D03*
X263465D02*
D03*
X273465D02*
D03*
D37*
X283465D02*
D03*
D38*
X174921Y354331D02*
D03*
D39*
X164921D02*
D03*
X154921D02*
D03*
X144921D02*
D03*
X134921D02*
D03*
X124921D02*
D03*
X114921D02*
D03*
X104921D02*
D03*
X94921D02*
D03*
X84921D02*
D03*
M02*
