G04 Layer_Physical_Order=2*
G04 Layer_Color=11436288*
%FSLAX25Y25*%
%MOIN*%
G70*
G01*
G75*
%ADD11C,0.01181*%
%ADD12C,0.07874*%
%ADD13R,0.07874X0.07874*%
%ADD14R,0.05906X0.05906*%
%ADD15C,0.05906*%
%ADD16C,0.05118*%
%ADD17C,0.06000*%
%ADD18C,0.07087*%
%ADD19R,0.07087X0.07087*%
%ADD20O,0.04724X0.09843*%
%ADD21R,0.04724X0.09843*%
%ADD22R,0.06102X0.06102*%
%ADD23C,0.06102*%
G36*
X332438Y61263D02*
X61263D01*
Y371808D01*
X332438D01*
Y61263D01*
D02*
G37*
%LPC*%
G36*
X227047Y211260D02*
X223504D01*
Y207717D01*
X227047D01*
Y211260D01*
D02*
G37*
G36*
X222323D02*
X218780D01*
Y207717D01*
X222323D01*
Y211260D01*
D02*
G37*
G36*
X162323D02*
X158822D01*
X158886Y210771D01*
X159302Y209766D01*
X159965Y208902D01*
X160829Y208240D01*
X161834Y207823D01*
X162323Y207759D01*
Y211260D01*
D02*
G37*
G36*
X202323D02*
X198822D01*
X198886Y210771D01*
X199302Y209766D01*
X199965Y208902D01*
X200829Y208240D01*
X201834Y207823D01*
X202323Y207759D01*
Y211260D01*
D02*
G37*
G36*
X167005D02*
X163504D01*
Y207759D01*
X163993Y207823D01*
X164998Y208240D01*
X165862Y208902D01*
X166524Y209766D01*
X166941Y210771D01*
X167005Y211260D01*
D02*
G37*
G36*
X172913Y216020D02*
X171834Y215878D01*
X170829Y215461D01*
X169965Y214799D01*
X169302Y213935D01*
X168886Y212930D01*
X168744Y211850D01*
X168886Y210771D01*
X169302Y209766D01*
X169965Y208902D01*
X170829Y208240D01*
X171834Y207823D01*
X172913Y207681D01*
X173993Y207823D01*
X174998Y208240D01*
X175862Y208902D01*
X176524Y209766D01*
X176941Y210771D01*
X177083Y211850D01*
X176941Y212930D01*
X176524Y213935D01*
X175862Y214799D01*
X174998Y215461D01*
X173993Y215878D01*
X172913Y216020D01*
D02*
G37*
G36*
X88825Y194134D02*
X84331D01*
Y189640D01*
X85076Y189738D01*
X86321Y190254D01*
X87391Y191074D01*
X88211Y192143D01*
X88727Y193388D01*
X88825Y194134D01*
D02*
G37*
G36*
X182913Y216020D02*
X181834Y215878D01*
X180829Y215461D01*
X179965Y214799D01*
X179303Y213935D01*
X178886Y212930D01*
X178744Y211850D01*
X178886Y210771D01*
X179303Y209766D01*
X179965Y208902D01*
X180829Y208240D01*
X181834Y207823D01*
X182913Y207681D01*
X183993Y207823D01*
X184998Y208240D01*
X185862Y208902D01*
X186524Y209766D01*
X186941Y210771D01*
X187083Y211850D01*
X186941Y212930D01*
X186524Y213935D01*
X185862Y214799D01*
X184998Y215461D01*
X183993Y215878D01*
X182913Y216020D01*
D02*
G37*
G36*
X212913D02*
X211834Y215878D01*
X210829Y215461D01*
X209965Y214799D01*
X209302Y213935D01*
X208886Y212930D01*
X208744Y211850D01*
X208886Y210771D01*
X209302Y209766D01*
X209965Y208902D01*
X210829Y208240D01*
X211834Y207823D01*
X212913Y207681D01*
X213993Y207823D01*
X214998Y208240D01*
X215862Y208902D01*
X216524Y209766D01*
X216941Y210771D01*
X217083Y211850D01*
X216941Y212930D01*
X216524Y213935D01*
X215862Y214799D01*
X214998Y215461D01*
X213993Y215878D01*
X212913Y216020D01*
D02*
G37*
G36*
X192913D02*
X191834Y215878D01*
X190829Y215461D01*
X189965Y214799D01*
X189303Y213935D01*
X188886Y212930D01*
X188744Y211850D01*
X188886Y210771D01*
X189303Y209766D01*
X189965Y208902D01*
X190829Y208240D01*
X191834Y207823D01*
X192913Y207681D01*
X193993Y207823D01*
X194998Y208240D01*
X195862Y208902D01*
X196524Y209766D01*
X196941Y210771D01*
X197083Y211850D01*
X196941Y212930D01*
X196524Y213935D01*
X195862Y214799D01*
X194998Y215461D01*
X193993Y215878D01*
X192913Y216020D01*
D02*
G37*
G36*
X207005Y211260D02*
X203504D01*
Y207759D01*
X203993Y207823D01*
X204998Y208240D01*
X205862Y208902D01*
X206524Y209766D01*
X206941Y210771D01*
X207005Y211260D01*
D02*
G37*
G36*
X222323Y215984D02*
X218780D01*
Y212441D01*
X222323D01*
Y215984D01*
D02*
G37*
G36*
X203504Y215942D02*
Y212441D01*
X207005D01*
X206941Y212930D01*
X206524Y213935D01*
X205862Y214799D01*
X204998Y215461D01*
X203993Y215878D01*
X203504Y215942D01*
D02*
G37*
G36*
X227047Y215984D02*
X223504D01*
Y212441D01*
X227047D01*
Y215984D01*
D02*
G37*
G36*
X137401Y216293D02*
Y213189D01*
X140506D01*
X140455Y213575D01*
X140078Y214485D01*
X139479Y215266D01*
X138697Y215865D01*
X137787Y216242D01*
X137401Y216293D01*
D02*
G37*
G36*
X136221D02*
X135835Y216242D01*
X134925Y215865D01*
X134143Y215266D01*
X133544Y214485D01*
X133167Y213575D01*
X133116Y213189D01*
X136221D01*
Y216293D01*
D02*
G37*
G36*
X140506Y212008D02*
X137401D01*
Y208904D01*
X137787Y208955D01*
X138697Y209331D01*
X139479Y209931D01*
X140078Y210712D01*
X140455Y211622D01*
X140506Y212008D01*
D02*
G37*
G36*
X136221D02*
X133116D01*
X133167Y211622D01*
X133544Y210712D01*
X134143Y209931D01*
X134925Y209331D01*
X135835Y208955D01*
X136221Y208904D01*
Y212008D01*
D02*
G37*
G36*
X162323Y215942D02*
X161834Y215878D01*
X160829Y215461D01*
X159965Y214799D01*
X159302Y213935D01*
X158886Y212930D01*
X158822Y212441D01*
X162323D01*
Y215942D01*
D02*
G37*
G36*
X202323D02*
X201834Y215878D01*
X200829Y215461D01*
X199965Y214799D01*
X199302Y213935D01*
X198886Y212930D01*
X198822Y212441D01*
X202323D01*
Y215942D01*
D02*
G37*
G36*
X163504D02*
Y212441D01*
X167005D01*
X166941Y212930D01*
X166524Y213935D01*
X165862Y214799D01*
X164998Y215461D01*
X163993Y215878D01*
X163504Y215942D01*
D02*
G37*
G36*
X283465Y242904D02*
X282540Y242783D01*
X281678Y242426D01*
X280938Y241858D01*
X280369Y241118D01*
X280012Y240256D01*
X279891Y239331D01*
Y234212D01*
X280012Y233288D01*
X280369Y232426D01*
X280938Y231685D01*
X280963Y231303D01*
X275866Y226206D01*
X158455D01*
X157764Y226069D01*
X157178Y225677D01*
X147710Y216209D01*
X147630Y216242D01*
X146654Y216371D01*
X145677Y216242D01*
X144767Y215865D01*
X143986Y215266D01*
X143387Y214485D01*
X143010Y213575D01*
X142881Y212598D01*
X143010Y211622D01*
X143387Y210712D01*
X143986Y209931D01*
X144767Y209331D01*
X145677Y208955D01*
X146654Y208826D01*
X147630Y208955D01*
X148540Y209331D01*
X149321Y209931D01*
X149921Y210712D01*
X150297Y211622D01*
X150426Y212598D01*
X150297Y213575D01*
X150264Y213655D01*
X159203Y222594D01*
X271600D01*
X271792Y222132D01*
X233317Y183657D01*
X226640D01*
X226524Y183935D01*
X225862Y184799D01*
X224998Y185461D01*
X223992Y185878D01*
X222913Y186020D01*
X221834Y185878D01*
X221556Y185763D01*
X219341Y187977D01*
X218755Y188369D01*
X218064Y188506D01*
X82513D01*
X81411Y189608D01*
X81694Y190032D01*
X82404Y189738D01*
X83150Y189640D01*
Y194724D01*
X83740D01*
Y195315D01*
X88825D01*
X88727Y196061D01*
X88211Y197306D01*
X87391Y198375D01*
X86321Y199195D01*
X85697Y199454D01*
Y199995D01*
X86321Y200254D01*
X87391Y201074D01*
X88211Y202143D01*
X88532Y202918D01*
X109800D01*
X110491Y203056D01*
X111077Y203447D01*
X124742Y217112D01*
X125134Y217698D01*
X125271Y218389D01*
Y231132D01*
X125992Y231685D01*
X126560Y232426D01*
X126917Y233288D01*
X127039Y234212D01*
Y239331D01*
X126917Y240256D01*
X126560Y241118D01*
X125992Y241858D01*
X125251Y242426D01*
X124390Y242783D01*
X123465Y242904D01*
X122540Y242783D01*
X121678Y242426D01*
X120938Y241858D01*
X120370Y241118D01*
X120012Y240256D01*
X119891Y239331D01*
Y234212D01*
X120012Y233288D01*
X120370Y232426D01*
X120938Y231685D01*
X121658Y231132D01*
Y219137D01*
X109052Y206531D01*
X88532D01*
X88211Y207306D01*
X87391Y208375D01*
X86321Y209195D01*
X85697Y209454D01*
Y209995D01*
X86321Y210254D01*
X87391Y211074D01*
X88211Y212143D01*
X88727Y213388D01*
X88902Y214724D01*
X88727Y216060D01*
X88211Y217305D01*
X87529Y218194D01*
X87762Y218694D01*
X102750D01*
X103441Y218831D01*
X104027Y219223D01*
X114742Y229937D01*
X115134Y230523D01*
X115252Y231118D01*
X115992Y231685D01*
X116560Y232426D01*
X116917Y233288D01*
X117039Y234212D01*
Y239331D01*
X116917Y240256D01*
X116560Y241118D01*
X115992Y241858D01*
X115252Y242426D01*
X114390Y242783D01*
X113465Y242904D01*
X112540Y242783D01*
X111678Y242426D01*
X110938Y241858D01*
X110370Y241118D01*
X110012Y240256D01*
X109891Y239331D01*
Y234212D01*
X110012Y233288D01*
X110370Y232426D01*
X110938Y231685D01*
X110965Y231269D01*
X102002Y222306D01*
X68000D01*
X67309Y222169D01*
X66723Y221777D01*
X66331Y221191D01*
X66194Y220500D01*
Y206250D01*
X66217Y206131D01*
X66210Y206011D01*
X66285Y205789D01*
X66331Y205559D01*
D01*
X66398Y205458D01*
X66438Y205344D01*
X66592Y205168D01*
X66723Y204973D01*
X66823Y204906D01*
X66903Y204815D01*
X67114Y204711D01*
X67309Y204581D01*
X67427Y204557D01*
X67536Y204504D01*
X68646Y204209D01*
X68754Y203388D01*
X69270Y202143D01*
X70090Y201074D01*
X71159Y200254D01*
X71784Y199995D01*
Y199454D01*
X71159Y199195D01*
X70090Y198375D01*
X69270Y197306D01*
X68754Y196061D01*
X68578Y194724D01*
X68754Y193388D01*
X69270Y192143D01*
X70090Y191074D01*
X71159Y190254D01*
X72404Y189738D01*
X73740Y189562D01*
X75076Y189738D01*
X75851Y190059D01*
X80487Y185423D01*
X81073Y185031D01*
X81765Y184894D01*
X159408D01*
X159654Y184394D01*
X159302Y183935D01*
X159187Y183657D01*
X102047D01*
X101356Y183519D01*
X100770Y183128D01*
X80134Y162492D01*
X79832Y162617D01*
X78740Y162761D01*
X77649Y162617D01*
X76632Y162196D01*
X75758Y161525D01*
X75088Y160652D01*
X74667Y159635D01*
X74523Y158543D01*
X74667Y157452D01*
X75088Y156435D01*
X75758Y155561D01*
X76632Y154891D01*
X77649Y154470D01*
X78740Y154326D01*
X79832Y154470D01*
X80849Y154891D01*
X81722Y155561D01*
X82392Y156435D01*
X82814Y157452D01*
X82957Y158543D01*
X82814Y159635D01*
X82688Y159937D01*
X102795Y180044D01*
X159187D01*
X159302Y179766D01*
X159965Y178902D01*
X160829Y178240D01*
X161834Y177823D01*
X162913Y177681D01*
X163993Y177823D01*
X164998Y178240D01*
X165862Y178902D01*
X166524Y179766D01*
X166941Y180771D01*
X167083Y181850D01*
X166941Y182930D01*
X166524Y183935D01*
X166173Y184394D01*
X166419Y184894D01*
X169408D01*
X169654Y184394D01*
X169302Y183935D01*
X168886Y182930D01*
X168744Y181850D01*
X168886Y180771D01*
X169001Y180493D01*
X162615Y174106D01*
X145725D01*
X145034Y173969D01*
X144448Y173577D01*
X116214Y145343D01*
X116134Y145376D01*
X115157Y145505D01*
X114181Y145376D01*
X114101Y145343D01*
X109624Y149821D01*
X109037Y150212D01*
X108346Y150350D01*
X82518D01*
X82392Y150652D01*
X81722Y151525D01*
X80849Y152196D01*
X79832Y152617D01*
X78740Y152761D01*
X77649Y152617D01*
X76632Y152196D01*
X75758Y151525D01*
X75088Y150652D01*
X74667Y149635D01*
X74523Y148543D01*
X74667Y147452D01*
X75088Y146435D01*
X75758Y145561D01*
X76632Y144891D01*
X77649Y144470D01*
X78740Y144326D01*
X79832Y144470D01*
X80849Y144891D01*
X81722Y145561D01*
X82392Y146435D01*
X82518Y146737D01*
X107598D01*
X111547Y142788D01*
X111513Y142709D01*
X111385Y141732D01*
X111513Y140756D01*
X111890Y139846D01*
X112490Y139065D01*
X113271Y138465D01*
X114181Y138088D01*
X115157Y137960D01*
X116134Y138088D01*
X117044Y138465D01*
X117825Y139065D01*
X118424Y139846D01*
X118801Y140756D01*
X118930Y141732D01*
X118801Y142709D01*
X118768Y142788D01*
X146473Y170494D01*
X163363D01*
X164054Y170631D01*
X164640Y171023D01*
X171556Y177938D01*
X171834Y177823D01*
X172913Y177681D01*
X173993Y177823D01*
X174998Y178240D01*
X175862Y178902D01*
X176524Y179766D01*
X176941Y180771D01*
X177083Y181850D01*
X176941Y182930D01*
X176524Y183935D01*
X176172Y184394D01*
X176419Y184894D01*
X179408D01*
X179654Y184394D01*
X179303Y183935D01*
X178886Y182930D01*
X178744Y181850D01*
X178886Y180771D01*
X179001Y180493D01*
X158858Y160350D01*
X145510D01*
X145384Y160652D01*
X144714Y161525D01*
X143841Y162196D01*
X142824Y162617D01*
X141732Y162761D01*
X140641Y162617D01*
X139624Y162196D01*
X138750Y161525D01*
X138080Y160652D01*
X137659Y159635D01*
X137515Y158543D01*
X137659Y157452D01*
X138080Y156435D01*
X138750Y155561D01*
X139624Y154891D01*
X140641Y154470D01*
X141732Y154326D01*
X142824Y154470D01*
X143841Y154891D01*
X144714Y155561D01*
X145384Y156435D01*
X145510Y156737D01*
X159606D01*
X160298Y156875D01*
X160884Y157266D01*
X181556Y177938D01*
X181834Y177823D01*
X182913Y177681D01*
X183993Y177823D01*
X184998Y178240D01*
X185862Y178902D01*
X186524Y179766D01*
X186941Y180771D01*
X187083Y181850D01*
X186941Y182930D01*
X186524Y183935D01*
X186172Y184394D01*
X186419Y184894D01*
X189408D01*
X189654Y184394D01*
X189303Y183935D01*
X188886Y182930D01*
X188744Y181850D01*
X188886Y180771D01*
X189303Y179766D01*
X189965Y178902D01*
X190829Y178240D01*
X191834Y177823D01*
X192913Y177681D01*
X193993Y177823D01*
X194998Y178240D01*
X195862Y178902D01*
X196524Y179766D01*
X196941Y180771D01*
X197083Y181850D01*
X196941Y182930D01*
X196524Y183935D01*
X196172Y184394D01*
X196419Y184894D01*
X199408D01*
X199654Y184394D01*
X199302Y183935D01*
X198886Y182930D01*
X198744Y181850D01*
X198886Y180771D01*
X199302Y179766D01*
X199965Y178902D01*
X200829Y178240D01*
X201834Y177823D01*
X202913Y177681D01*
X203993Y177823D01*
X204998Y178240D01*
X205862Y178902D01*
X206524Y179766D01*
X206941Y180771D01*
X207083Y181850D01*
X206941Y182930D01*
X206524Y183935D01*
X206172Y184394D01*
X206419Y184894D01*
X209408D01*
X209654Y184394D01*
X209302Y183935D01*
X208886Y182930D01*
X208744Y181850D01*
X208886Y180771D01*
X209302Y179766D01*
X209965Y178902D01*
X210829Y178240D01*
X211834Y177823D01*
X212913Y177681D01*
X213993Y177823D01*
X214998Y178240D01*
X215862Y178902D01*
X216524Y179766D01*
X216941Y180771D01*
X217083Y181850D01*
X216941Y182930D01*
X216524Y183935D01*
X216173Y184394D01*
X216419Y184894D01*
X217316D01*
X219001Y183208D01*
X218886Y182930D01*
X218744Y181850D01*
X218886Y180771D01*
X219303Y179766D01*
X219965Y178902D01*
X220829Y178240D01*
X221834Y177823D01*
X222913Y177681D01*
X223992Y177823D01*
X224998Y178240D01*
X225862Y178902D01*
X226524Y179766D01*
X226640Y180044D01*
X234065D01*
X234756Y180182D01*
X235342Y180573D01*
X277892Y223123D01*
X284742Y229973D01*
X285134Y230559D01*
X285244Y231114D01*
X285251Y231118D01*
X285992Y231685D01*
X286560Y232426D01*
X286917Y233288D01*
X287038Y234212D01*
Y239331D01*
X286917Y240256D01*
X286560Y241118D01*
X285992Y241858D01*
X285251Y242426D01*
X284390Y242783D01*
X283465Y242904D01*
D02*
G37*
G36*
X175939Y141142D02*
X172835D01*
Y138038D01*
X173221Y138088D01*
X174130Y138465D01*
X174912Y139065D01*
X175511Y139846D01*
X175888Y140756D01*
X175939Y141142D01*
D02*
G37*
G36*
X171654D02*
X168550D01*
X168600Y140756D01*
X168977Y139846D01*
X169577Y139065D01*
X170358Y138465D01*
X171268Y138088D01*
X171654Y138038D01*
Y141142D01*
D02*
G37*
G36*
X238583D02*
X235478D01*
X235529Y140756D01*
X235906Y139846D01*
X236506Y139065D01*
X237287Y138465D01*
X238197Y138088D01*
X238583Y138038D01*
Y141142D01*
D02*
G37*
G36*
X301575D02*
X298471D01*
X298521Y140756D01*
X298898Y139846D01*
X299498Y139065D01*
X300279Y138465D01*
X301189Y138088D01*
X301575Y138038D01*
Y141142D01*
D02*
G37*
G36*
X242868D02*
X239764D01*
Y138038D01*
X240150Y138088D01*
X241059Y138465D01*
X241841Y139065D01*
X242440Y139846D01*
X242817Y140756D01*
X242868Y141142D01*
D02*
G37*
G36*
X208661Y152761D02*
X207570Y152617D01*
X206553Y152196D01*
X205679Y151525D01*
X205009Y150652D01*
X204588Y149635D01*
X204444Y148543D01*
X204588Y147452D01*
X205009Y146435D01*
X205679Y145561D01*
X206553Y144891D01*
X207570Y144470D01*
X208661Y144326D01*
X209753Y144470D01*
X210770Y144891D01*
X211643Y145561D01*
X212314Y146435D01*
X212439Y146737D01*
X241456D01*
X245405Y142788D01*
X245372Y142709D01*
X245243Y141732D01*
X245372Y140756D01*
X245749Y139846D01*
X246348Y139065D01*
X247130Y138465D01*
X248039Y138088D01*
X249016Y137960D01*
X249992Y138088D01*
X250902Y138465D01*
X251683Y139065D01*
X252283Y139846D01*
X252660Y140756D01*
X252788Y141732D01*
X252660Y142709D01*
X252283Y143618D01*
X251683Y144400D01*
X250902Y144999D01*
X249992Y145376D01*
X249016Y145505D01*
X248039Y145376D01*
X247960Y145343D01*
X243482Y149821D01*
X242896Y150212D01*
X242205Y150350D01*
X212439D01*
X212314Y150652D01*
X211643Y151525D01*
X210770Y152196D01*
X209753Y152617D01*
X208661Y152761D01*
D02*
G37*
G36*
X141732D02*
X140641Y152617D01*
X139624Y152196D01*
X138750Y151525D01*
X138080Y150652D01*
X137659Y149635D01*
X137515Y148543D01*
X137659Y147452D01*
X138080Y146435D01*
X138750Y145561D01*
X139624Y144891D01*
X140641Y144470D01*
X141732Y144326D01*
X142824Y144470D01*
X143841Y144891D01*
X144714Y145561D01*
X145384Y146435D01*
X145510Y146737D01*
X174527D01*
X178476Y142788D01*
X178443Y142709D01*
X178314Y141732D01*
X178443Y140756D01*
X178820Y139846D01*
X179419Y139065D01*
X180200Y138465D01*
X181110Y138088D01*
X182087Y137960D01*
X183063Y138088D01*
X183973Y138465D01*
X184754Y139065D01*
X185354Y139846D01*
X185731Y140756D01*
X185859Y141732D01*
X185731Y142709D01*
X185354Y143618D01*
X184754Y144400D01*
X183973Y144999D01*
X183063Y145376D01*
X182087Y145505D01*
X181110Y145376D01*
X181030Y145343D01*
X176553Y149821D01*
X175967Y150212D01*
X175275Y150350D01*
X145510D01*
X145384Y150652D01*
X144714Y151525D01*
X143841Y152196D01*
X142824Y152617D01*
X141732Y152761D01*
D02*
G37*
G36*
X280591Y161698D02*
X279499Y161554D01*
X278482Y161133D01*
X277609Y160462D01*
X276938Y159589D01*
X276517Y158572D01*
X276373Y157480D01*
X276517Y156389D01*
X276938Y155372D01*
X277609Y154498D01*
X278482Y153828D01*
X279499Y153407D01*
X280591Y153263D01*
X281682Y153407D01*
X282699Y153828D01*
X283573Y154498D01*
X284243Y155372D01*
X284368Y155674D01*
X295511D01*
X308397Y142788D01*
D01*
D01*
X308364Y142709D01*
X308235Y141732D01*
X308364Y140756D01*
X308741Y139846D01*
X309340Y139065D01*
X310122Y138465D01*
X311031Y138088D01*
X312008Y137960D01*
X312984Y138088D01*
X313894Y138465D01*
X314675Y139065D01*
X315275Y139846D01*
X315652Y140756D01*
X315780Y141732D01*
X315652Y142709D01*
X315275Y143618D01*
X314675Y144400D01*
X313894Y144999D01*
X312984Y145376D01*
X312008Y145505D01*
X311031Y145376D01*
X310952Y145343D01*
D01*
X297537Y158758D01*
X296951Y159149D01*
X296260Y159287D01*
X284368D01*
X284243Y159589D01*
X283573Y160462D01*
X282699Y161133D01*
X281682Y161554D01*
X280591Y161698D01*
D02*
G37*
G36*
X109010Y141142D02*
X105905D01*
Y138038D01*
X106291Y138088D01*
X107201Y138465D01*
X107983Y139065D01*
X108582Y139846D01*
X108959Y140756D01*
X109010Y141142D01*
D02*
G37*
G36*
X104725D02*
X101620D01*
X101671Y140756D01*
X102048Y139846D01*
X102647Y139065D01*
X103429Y138465D01*
X104339Y138088D01*
X104725Y138038D01*
Y141142D01*
D02*
G37*
G36*
X305860D02*
X302756D01*
Y138038D01*
X303142Y138088D01*
X304052Y138465D01*
X304833Y139065D01*
X305432Y139846D01*
X305809Y140756D01*
X305860Y141142D01*
D02*
G37*
G36*
X301575Y145427D02*
X301189Y145376D01*
X300279Y144999D01*
X299498Y144400D01*
X298898Y143618D01*
X298521Y142709D01*
X298471Y142323D01*
X301575D01*
Y145427D01*
D02*
G37*
G36*
X239764D02*
Y142323D01*
X242868D01*
X242817Y142709D01*
X242440Y143618D01*
X241841Y144400D01*
X241059Y144999D01*
X240150Y145376D01*
X239764Y145427D01*
D02*
G37*
G36*
X302756D02*
Y142323D01*
X305860D01*
X305809Y142709D01*
X305432Y143618D01*
X304833Y144400D01*
X304052Y144999D01*
X303142Y145376D01*
X302756Y145427D01*
D02*
G37*
G36*
X208661Y162761D02*
X207570Y162617D01*
X206553Y162196D01*
X205679Y161525D01*
X205009Y160652D01*
X204588Y159635D01*
X204444Y158543D01*
X204588Y157452D01*
X205009Y156435D01*
X205679Y155561D01*
X206553Y154891D01*
X207570Y154470D01*
X208661Y154326D01*
X209753Y154470D01*
X210770Y154891D01*
X211643Y155561D01*
X212314Y156435D01*
X212735Y157452D01*
X212879Y158543D01*
X212735Y159635D01*
X212314Y160652D01*
X211643Y161525D01*
X210770Y162196D01*
X209753Y162617D01*
X208661Y162761D01*
D02*
G37*
G36*
X270591Y161698D02*
X269499Y161554D01*
X268482Y161133D01*
X267609Y160462D01*
X266938Y159589D01*
X266517Y158572D01*
X266373Y157480D01*
X266517Y156389D01*
X266938Y155372D01*
X267609Y154498D01*
X268482Y153828D01*
X269499Y153407D01*
X270591Y153263D01*
X271682Y153407D01*
X272699Y153828D01*
X273573Y154498D01*
X274243Y155372D01*
X274664Y156389D01*
X274808Y157480D01*
X274664Y158572D01*
X274243Y159589D01*
X273573Y160462D01*
X272699Y161133D01*
X271682Y161554D01*
X270591Y161698D01*
D02*
G37*
G36*
X105905Y145427D02*
Y142323D01*
X109010D01*
X108959Y142709D01*
X108582Y143618D01*
X107983Y144400D01*
X107201Y144999D01*
X106291Y145376D01*
X105905Y145427D01*
D02*
G37*
G36*
X104725D02*
X104339Y145376D01*
X103429Y144999D01*
X102647Y144400D01*
X102048Y143618D01*
X101671Y142709D01*
X101620Y142323D01*
X104725D01*
Y145427D01*
D02*
G37*
G36*
X171654D02*
X171268Y145376D01*
X170358Y144999D01*
X169577Y144400D01*
X168977Y143618D01*
X168600Y142709D01*
X168550Y142323D01*
X171654D01*
Y145427D01*
D02*
G37*
G36*
X238583D02*
X238197Y145376D01*
X237287Y144999D01*
X236506Y144400D01*
X235906Y143618D01*
X235529Y142709D01*
X235478Y142323D01*
X238583D01*
Y145427D01*
D02*
G37*
G36*
X172835D02*
Y142323D01*
X175939D01*
X175888Y142709D01*
X175511Y143618D01*
X174912Y144400D01*
X174130Y144999D01*
X173221Y145376D01*
X172835Y145427D01*
D02*
G37*
G36*
X93465Y242904D02*
X92540Y242783D01*
X91678Y242426D01*
X90938Y241858D01*
X90369Y241118D01*
X90013Y240256D01*
X89891Y239331D01*
Y234212D01*
X90013Y233288D01*
X90369Y232426D01*
X90938Y231685D01*
X91678Y231118D01*
X92540Y230760D01*
X93465Y230639D01*
X94390Y230760D01*
X95252Y231118D01*
X95992Y231685D01*
X96560Y232426D01*
X96917Y233288D01*
X97039Y234212D01*
Y239331D01*
X96917Y240256D01*
X96560Y241118D01*
X95992Y241858D01*
X95252Y242426D01*
X94390Y242783D01*
X93465Y242904D01*
D02*
G37*
G36*
X173465Y332905D02*
X172540Y332783D01*
X171678Y332426D01*
X170938Y331858D01*
X170370Y331118D01*
X170012Y330256D01*
X169891Y329331D01*
Y324213D01*
X170012Y323288D01*
X170370Y322426D01*
X170938Y321685D01*
X171678Y321117D01*
X172540Y320760D01*
X173465Y320639D01*
X174390Y320760D01*
X175251Y321117D01*
X175992Y321685D01*
X176560Y322426D01*
X176917Y323288D01*
X177039Y324213D01*
Y329331D01*
X176917Y330256D01*
X176560Y331118D01*
X175992Y331858D01*
X175251Y332426D01*
X174390Y332783D01*
X173465Y332905D01*
D02*
G37*
G36*
X163465D02*
X162540Y332783D01*
X161678Y332426D01*
X160938Y331858D01*
X160370Y331118D01*
X160012Y330256D01*
X159891Y329331D01*
Y324213D01*
X160012Y323288D01*
X160370Y322426D01*
X160938Y321685D01*
X161678Y321117D01*
X162540Y320760D01*
X163465Y320639D01*
X164390Y320760D01*
X165252Y321117D01*
X165992Y321685D01*
X166560Y322426D01*
X166917Y323288D01*
X167039Y324213D01*
Y329331D01*
X166917Y330256D01*
X166560Y331118D01*
X165992Y331858D01*
X165252Y332426D01*
X164390Y332783D01*
X163465Y332905D01*
D02*
G37*
G36*
X183465D02*
X182540Y332783D01*
X181678Y332426D01*
X180938Y331858D01*
X180369Y331118D01*
X180013Y330256D01*
X179891Y329331D01*
Y324213D01*
X180013Y323288D01*
X180369Y322426D01*
X180938Y321685D01*
X181678Y321117D01*
X182540Y320760D01*
X183465Y320639D01*
X184390Y320760D01*
X185251Y321117D01*
X185992Y321685D01*
X186560Y322426D01*
X186917Y323288D01*
X187039Y324213D01*
Y329331D01*
X186917Y330256D01*
X186560Y331118D01*
X185992Y331858D01*
X185251Y332426D01*
X184390Y332783D01*
X183465Y332905D01*
D02*
G37*
G36*
X287008Y326181D02*
X284055D01*
Y320669D01*
X287008D01*
Y326181D01*
D02*
G37*
G36*
X282874D02*
X279921D01*
Y320669D01*
X282874D01*
Y326181D01*
D02*
G37*
G36*
X153465Y332905D02*
X152540Y332783D01*
X151678Y332426D01*
X150937Y331858D01*
X150370Y331118D01*
X150013Y330256D01*
X149891Y329331D01*
Y324213D01*
X150013Y323288D01*
X150370Y322426D01*
X150937Y321685D01*
X151678Y321117D01*
X152540Y320760D01*
X153465Y320639D01*
X154390Y320760D01*
X155252Y321117D01*
X155992Y321685D01*
X156560Y322426D01*
X156917Y323288D01*
X157038Y324213D01*
Y329331D01*
X156917Y330256D01*
X156560Y331118D01*
X155992Y331858D01*
X155252Y332426D01*
X154390Y332783D01*
X153465Y332905D01*
D02*
G37*
G36*
X113465D02*
X112540Y332783D01*
X111678Y332426D01*
X110938Y331858D01*
X110370Y331118D01*
X110012Y330256D01*
X109891Y329331D01*
Y324213D01*
X110012Y323288D01*
X110370Y322426D01*
X110938Y321685D01*
X111678Y321117D01*
X112540Y320760D01*
X113465Y320639D01*
X114390Y320760D01*
X115252Y321117D01*
X115992Y321685D01*
X116560Y322426D01*
X116917Y323288D01*
X117039Y324213D01*
Y329331D01*
X116917Y330256D01*
X116560Y331118D01*
X115992Y331858D01*
X115252Y332426D01*
X114390Y332783D01*
X113465Y332905D01*
D02*
G37*
G36*
X103465D02*
X102540Y332783D01*
X101678Y332426D01*
X100937Y331858D01*
X100370Y331118D01*
X100013Y330256D01*
X99891Y329331D01*
Y324213D01*
X100013Y323288D01*
X100370Y322426D01*
X100937Y321685D01*
X101678Y321117D01*
X102540Y320760D01*
X103465Y320639D01*
X104390Y320760D01*
X105252Y321117D01*
X105992Y321685D01*
X106560Y322426D01*
X106917Y323288D01*
X107038Y324213D01*
Y329331D01*
X106917Y330256D01*
X106560Y331118D01*
X105992Y331858D01*
X105252Y332426D01*
X104390Y332783D01*
X103465Y332905D01*
D02*
G37*
G36*
X123465D02*
X122540Y332783D01*
X121678Y332426D01*
X120938Y331858D01*
X120370Y331118D01*
X120012Y330256D01*
X119891Y329331D01*
Y324213D01*
X120012Y323288D01*
X120370Y322426D01*
X120938Y321685D01*
X121678Y321117D01*
X122540Y320760D01*
X123465Y320639D01*
X124390Y320760D01*
X125251Y321117D01*
X125992Y321685D01*
X126560Y322426D01*
X126917Y323288D01*
X127039Y324213D01*
Y329331D01*
X126917Y330256D01*
X126560Y331118D01*
X125992Y331858D01*
X125251Y332426D01*
X124390Y332783D01*
X123465Y332905D01*
D02*
G37*
G36*
X143465D02*
X142540Y332783D01*
X141678Y332426D01*
X140937Y331858D01*
X140369Y331118D01*
X140013Y330256D01*
X139891Y329331D01*
Y324213D01*
X140013Y323288D01*
X140369Y322426D01*
X140937Y321685D01*
X141678Y321117D01*
X142540Y320760D01*
X143465Y320639D01*
X144390Y320760D01*
X145252Y321117D01*
X145992Y321685D01*
X146560Y322426D01*
X146917Y323288D01*
X147038Y324213D01*
Y329331D01*
X146917Y330256D01*
X146560Y331118D01*
X145992Y331858D01*
X145252Y332426D01*
X144390Y332783D01*
X143465Y332905D01*
D02*
G37*
G36*
X133465D02*
X132540Y332783D01*
X131678Y332426D01*
X130938Y331858D01*
X130369Y331118D01*
X130013Y330256D01*
X129891Y329331D01*
Y324213D01*
X130013Y323288D01*
X130369Y322426D01*
X130938Y321685D01*
X131678Y321117D01*
X132540Y320760D01*
X133465Y320639D01*
X134390Y320760D01*
X135251Y321117D01*
X135992Y321685D01*
X136560Y322426D01*
X136917Y323288D01*
X137039Y324213D01*
Y329331D01*
X136917Y330256D01*
X136560Y331118D01*
X135992Y331858D01*
X135251Y332426D01*
X134390Y332783D01*
X133465Y332905D01*
D02*
G37*
G36*
X89112Y353740D02*
X85512D01*
Y350140D01*
X86026Y350207D01*
X87056Y350634D01*
X87940Y351312D01*
X88618Y352196D01*
X89044Y353226D01*
X89112Y353740D01*
D02*
G37*
G36*
X84331D02*
X80730D01*
X80798Y353226D01*
X81224Y352196D01*
X81903Y351312D01*
X82787Y350634D01*
X83816Y350207D01*
X84331Y350140D01*
Y353740D01*
D02*
G37*
G36*
Y358522D02*
X83816Y358454D01*
X82787Y358028D01*
X81903Y357349D01*
X81224Y356465D01*
X80798Y355436D01*
X80730Y354921D01*
X84331D01*
Y358522D01*
D02*
G37*
G36*
X229473Y361506D02*
X100290D01*
X99599Y361369D01*
X99013Y360977D01*
X96354Y358318D01*
X96026Y358454D01*
X94921Y358600D01*
X93816Y358454D01*
X92787Y358028D01*
X91903Y357349D01*
X91224Y356465D01*
X90798Y355436D01*
X90652Y354331D01*
X90798Y353226D01*
X91224Y352196D01*
X91903Y351312D01*
X92787Y350634D01*
X93816Y350207D01*
X94921Y350062D01*
X96026Y350207D01*
X97056Y350634D01*
X97940Y351312D01*
X98618Y352196D01*
X99045Y353226D01*
X99190Y354331D01*
X99045Y355436D01*
X98909Y355764D01*
X101039Y357894D01*
X101834D01*
X101995Y357420D01*
X101903Y357349D01*
X101224Y356465D01*
X100798Y355436D01*
X100652Y354331D01*
X100798Y353226D01*
X101224Y352196D01*
X101903Y351312D01*
X102787Y350634D01*
X103816Y350207D01*
X104921Y350062D01*
X106026Y350207D01*
X107056Y350634D01*
X107940Y351312D01*
X108618Y352196D01*
X109045Y353226D01*
X109190Y354331D01*
X109045Y355436D01*
X108618Y356465D01*
X107940Y357349D01*
X107847Y357420D01*
X108008Y357894D01*
X111834D01*
X111995Y357420D01*
X111903Y357349D01*
X111224Y356465D01*
X110798Y355436D01*
X110652Y354331D01*
X110798Y353226D01*
X111224Y352196D01*
X111903Y351312D01*
X112787Y350634D01*
X113816Y350207D01*
X114921Y350062D01*
X116026Y350207D01*
X117056Y350634D01*
X117940Y351312D01*
X118618Y352196D01*
X119044Y353226D01*
X119190Y354331D01*
X119044Y355436D01*
X118618Y356465D01*
X117940Y357349D01*
X117847Y357420D01*
X118008Y357894D01*
X121834D01*
X121995Y357420D01*
X121903Y357349D01*
X121224Y356465D01*
X120798Y355436D01*
X120652Y354331D01*
X120798Y353226D01*
X121224Y352196D01*
X121903Y351312D01*
X122787Y350634D01*
X123816Y350207D01*
X124921Y350062D01*
X126026Y350207D01*
X127056Y350634D01*
X127940Y351312D01*
X128618Y352196D01*
X129044Y353226D01*
X129190Y354331D01*
X129044Y355436D01*
X128618Y356465D01*
X127940Y357349D01*
X127847Y357420D01*
X128008Y357894D01*
X131834D01*
X131995Y357420D01*
X131903Y357349D01*
X131224Y356465D01*
X130798Y355436D01*
X130652Y354331D01*
X130798Y353226D01*
X131224Y352196D01*
X131903Y351312D01*
X132787Y350634D01*
X133816Y350207D01*
X134921Y350062D01*
X136026Y350207D01*
X137056Y350634D01*
X137940Y351312D01*
X138618Y352196D01*
X139044Y353226D01*
X139190Y354331D01*
X139044Y355436D01*
X138618Y356465D01*
X137940Y357349D01*
X137847Y357420D01*
X138008Y357894D01*
X141834D01*
X141995Y357420D01*
X141903Y357349D01*
X141224Y356465D01*
X140798Y355436D01*
X140652Y354331D01*
X140798Y353226D01*
X141224Y352196D01*
X141903Y351312D01*
X142787Y350634D01*
X143816Y350207D01*
X144921Y350062D01*
X146026Y350207D01*
X147056Y350634D01*
X147940Y351312D01*
X148618Y352196D01*
X149045Y353226D01*
X149190Y354331D01*
X149045Y355436D01*
X148618Y356465D01*
X147940Y357349D01*
X147847Y357420D01*
X148008Y357894D01*
X151834D01*
X151995Y357420D01*
X151903Y357349D01*
X151224Y356465D01*
X150798Y355436D01*
X150652Y354331D01*
X150798Y353226D01*
X151224Y352196D01*
X151903Y351312D01*
X152787Y350634D01*
X153816Y350207D01*
X154921Y350062D01*
X156026Y350207D01*
X157056Y350634D01*
X157940Y351312D01*
X158618Y352196D01*
X159045Y353226D01*
X159190Y354331D01*
X159045Y355436D01*
X158618Y356465D01*
X157940Y357349D01*
X157847Y357420D01*
X158008Y357894D01*
X161834D01*
X161995Y357420D01*
X161903Y357349D01*
X161224Y356465D01*
X160798Y355436D01*
X160652Y354331D01*
X160798Y353226D01*
X161224Y352196D01*
X161903Y351312D01*
X162787Y350634D01*
X163816Y350207D01*
X164921Y350062D01*
X166026Y350207D01*
X167056Y350634D01*
X167940Y351312D01*
X168618Y352196D01*
X169044Y353226D01*
X169190Y354331D01*
X169044Y355436D01*
X168618Y356465D01*
X167940Y357349D01*
X167847Y357420D01*
X168008Y357894D01*
X170689D01*
Y350098D01*
X179154D01*
Y357894D01*
X220991D01*
X221238Y357394D01*
X220716Y356713D01*
X220240Y355564D01*
X220155Y354921D01*
X224843D01*
Y354331D01*
X225433D01*
Y349643D01*
X226076Y349728D01*
X227225Y350204D01*
X228212Y350961D01*
X228969Y351948D01*
X229445Y353098D01*
X229561Y353975D01*
Y353975D01*
X229591Y354199D01*
X229593D01*
X229610D01*
X229639D01*
X230047D01*
X230076Y354199D01*
X230092Y354199D01*
X230095D01*
X230124Y353975D01*
Y353975D01*
X230240Y353098D01*
X230716Y351948D01*
X231473Y350961D01*
X232460Y350204D01*
X233609Y349728D01*
X234843Y349566D01*
X236076Y349728D01*
X237225Y350204D01*
X238212Y350961D01*
X238969Y351948D01*
X239445Y353098D01*
X239561Y353975D01*
Y353975D01*
X239591Y354199D01*
X239593D01*
X239610D01*
X239639D01*
X240047D01*
X240075Y354199D01*
X240092Y354199D01*
X240095D01*
X240124Y353975D01*
Y353975D01*
X240240Y353098D01*
X240716Y351948D01*
X241473Y350961D01*
X242460Y350204D01*
X243609Y349728D01*
X244843Y349566D01*
X246076Y349728D01*
X247225Y350204D01*
X248212Y350961D01*
X248969Y351948D01*
X249445Y353098D01*
X249561Y353975D01*
Y353975D01*
X249590Y354199D01*
X249593D01*
X249610D01*
X249639D01*
X250046D01*
X250076Y354199D01*
X250092Y354199D01*
X250095D01*
X250124Y353975D01*
Y353975D01*
X250240Y353098D01*
X250479Y352521D01*
X238806Y340849D01*
X200543D01*
X199851Y340711D01*
X199265Y340320D01*
X192187Y333242D01*
X191796Y332656D01*
X191756Y332458D01*
X191678Y332426D01*
D01*
X190937Y331858D01*
X190369Y331118D01*
X190013Y330256D01*
X189891Y329331D01*
Y324213D01*
X190013Y323288D01*
X190369Y322426D01*
X190937Y321685D01*
X191678Y321117D01*
X192540Y320760D01*
X193465Y320639D01*
X194390Y320760D01*
X195252Y321117D01*
X195992Y321685D01*
X196560Y322426D01*
X196917Y323288D01*
X197038Y324213D01*
Y329331D01*
X196917Y330256D01*
X196560Y331118D01*
X195992Y331858D01*
X195987Y331932D01*
X201291Y337236D01*
X204574D01*
X204782Y336736D01*
X202187Y334142D01*
X201796Y333556D01*
X201658Y332865D01*
Y332411D01*
X200938Y331858D01*
X200370Y331118D01*
X200012Y330256D01*
X199891Y329331D01*
Y324213D01*
X200012Y323288D01*
X200370Y322426D01*
X200938Y321685D01*
X201678Y321117D01*
X202540Y320760D01*
X203465Y320639D01*
X204390Y320760D01*
X205252Y321117D01*
X205992Y321685D01*
X206560Y322426D01*
X206917Y323288D01*
X207038Y324213D01*
Y329331D01*
X206917Y330256D01*
X206560Y331118D01*
X205992Y331858D01*
X205738Y332052D01*
X205706Y332551D01*
X207175Y334020D01*
X212577D01*
X212769Y333559D01*
X212187Y332977D01*
X211873Y332506D01*
X211678Y332426D01*
X210938Y331858D01*
X210369Y331118D01*
X210013Y330256D01*
X209891Y329331D01*
Y324213D01*
X210013Y323288D01*
X210369Y322426D01*
X210938Y321685D01*
X211678Y321117D01*
X212540Y320760D01*
X213465Y320639D01*
X214390Y320760D01*
X215251Y321117D01*
X215992Y321685D01*
X216560Y322426D01*
X216917Y323288D01*
X217038Y324213D01*
Y329331D01*
X216917Y330256D01*
X216560Y331118D01*
X216489Y331210D01*
X216710Y331658D01*
X220219D01*
X220440Y331210D01*
X220370Y331118D01*
X220012Y330256D01*
X219891Y329331D01*
Y324213D01*
X220012Y323288D01*
X220370Y322426D01*
X220937Y321685D01*
X221678Y321117D01*
X222540Y320760D01*
X223465Y320639D01*
X224390Y320760D01*
X225252Y321117D01*
X225992Y321685D01*
X226560Y322426D01*
X226917Y323288D01*
X227039Y324213D01*
Y329331D01*
X226917Y330256D01*
X226560Y331118D01*
X226489Y331210D01*
X226710Y331658D01*
X230219D01*
X230440Y331210D01*
X230369Y331118D01*
X230012Y330256D01*
X229891Y329331D01*
Y324213D01*
X230012Y323288D01*
X230369Y322426D01*
X230938Y321685D01*
X231678Y321117D01*
X232540Y320760D01*
X233465Y320639D01*
X234390Y320760D01*
X235251Y321117D01*
X235992Y321685D01*
X236560Y322426D01*
X236917Y323288D01*
X237038Y324213D01*
Y329331D01*
X236917Y330256D01*
X236560Y331118D01*
X236489Y331210D01*
X236710Y331658D01*
X240219D01*
X240440Y331210D01*
X240370Y331118D01*
X240013Y330256D01*
X239891Y329331D01*
Y324213D01*
X240013Y323288D01*
X240370Y322426D01*
X240937Y321685D01*
X241678Y321117D01*
X242540Y320760D01*
X243465Y320639D01*
X244390Y320760D01*
X245251Y321117D01*
X245992Y321685D01*
X246560Y322426D01*
X246917Y323288D01*
X247039Y324213D01*
Y329331D01*
X246917Y330256D01*
X246560Y331118D01*
X246489Y331210D01*
X246710Y331658D01*
X250219D01*
X250440Y331210D01*
X250370Y331118D01*
X250012Y330256D01*
X249891Y329331D01*
Y324213D01*
X250012Y323288D01*
X250370Y322426D01*
X250938Y321685D01*
X251678Y321117D01*
X252540Y320760D01*
X253465Y320639D01*
X254390Y320760D01*
X255252Y321117D01*
X255992Y321685D01*
X256560Y322426D01*
X256917Y323288D01*
X257038Y324213D01*
Y329331D01*
X257029Y329405D01*
X257358Y329781D01*
X258189D01*
X258880Y329919D01*
X259466Y330311D01*
X259551Y330395D01*
X259647Y330366D01*
X259996Y330134D01*
X259891Y329331D01*
Y324213D01*
X260013Y323288D01*
X260369Y322426D01*
X260938Y321685D01*
X261678Y321117D01*
X262540Y320760D01*
X263465Y320639D01*
X264390Y320760D01*
X265251Y321117D01*
X265992Y321685D01*
X266560Y322426D01*
X266917Y323288D01*
X267038Y324213D01*
Y329331D01*
X266917Y330256D01*
X266560Y331118D01*
X266462Y331245D01*
X266683Y331694D01*
X270246D01*
X270467Y331245D01*
X270370Y331118D01*
X270012Y330256D01*
X269891Y329331D01*
Y324213D01*
X270012Y323288D01*
X270370Y322426D01*
X270937Y321685D01*
X271678Y321117D01*
X272540Y320760D01*
X273465Y320639D01*
X274390Y320760D01*
X275252Y321117D01*
X275992Y321685D01*
X276560Y322426D01*
X276917Y323288D01*
X277039Y324213D01*
Y329331D01*
X276917Y330256D01*
X276560Y331118D01*
X276462Y331245D01*
X276683Y331694D01*
X279921D01*
Y327362D01*
X287008D01*
Y331694D01*
X308468D01*
X312334Y327828D01*
X312301Y327748D01*
X312172Y326772D01*
X312301Y325795D01*
X312678Y324885D01*
X313277Y324104D01*
X314059Y323505D01*
X314968Y323128D01*
X315945Y322999D01*
X316921Y323128D01*
X317831Y323505D01*
X318612Y324104D01*
X319212Y324885D01*
X319589Y325795D01*
X319717Y326772D01*
X319589Y327748D01*
X319212Y328658D01*
X318612Y329439D01*
X317831Y330039D01*
X316921Y330416D01*
X315945Y330544D01*
X314968Y330416D01*
X314889Y330382D01*
X310494Y334777D01*
X309908Y335169D01*
X309216Y335306D01*
X260101D01*
X259410Y335169D01*
X258824Y334777D01*
X257576Y333529D01*
X257335Y333562D01*
X257156Y334090D01*
X273033Y349967D01*
X273609Y349728D01*
X274843Y349566D01*
X276076Y349728D01*
X277225Y350204D01*
X278212Y350961D01*
X278969Y351948D01*
X279445Y353098D01*
X279561Y353975D01*
Y353975D01*
X279591Y354199D01*
X279593D01*
X279610D01*
X279639D01*
X280047D01*
X280076Y354199D01*
X280092Y354199D01*
X280095D01*
X280124Y353975D01*
Y353975D01*
X280240Y353098D01*
X280716Y351948D01*
X281473Y350961D01*
X282460Y350204D01*
X283609Y349728D01*
X284843Y349566D01*
X286076Y349728D01*
X287225Y350204D01*
X288212Y350961D01*
X288969Y351948D01*
X289445Y353098D01*
X289608Y354331D01*
X289445Y355564D01*
X288969Y356713D01*
X288212Y357700D01*
X287225Y358458D01*
X286076Y358934D01*
X284843Y359096D01*
X283609Y358934D01*
X282460Y358458D01*
X281473Y357700D01*
X280716Y356713D01*
X280240Y355564D01*
X280124Y354687D01*
Y354687D01*
X280095Y354462D01*
X280092D01*
X280076D01*
X280047D01*
X279639D01*
X279610Y354462D01*
X279593Y354462D01*
X279591D01*
X279561Y354687D01*
Y354687D01*
X279445Y355564D01*
X278969Y356713D01*
X278212Y357700D01*
X277225Y358458D01*
X276076Y358934D01*
X274843Y359096D01*
X273609Y358934D01*
X272460Y358458D01*
X271473Y357700D01*
X270716Y356713D01*
X270240Y355564D01*
X270124Y354687D01*
Y354687D01*
X270095Y354462D01*
X270092D01*
X270075D01*
X270046D01*
X269639D01*
X269610Y354462D01*
X269593Y354462D01*
X269590D01*
X269561Y354687D01*
Y354687D01*
X269445Y355564D01*
X268969Y356713D01*
X268212Y357700D01*
X267225Y358458D01*
X266076Y358934D01*
X264843Y359096D01*
X263609Y358934D01*
X262460Y358458D01*
X261473Y357700D01*
X260716Y356713D01*
X260240Y355564D01*
X260124Y354687D01*
Y354687D01*
X260095Y354462D01*
X260092D01*
X260075D01*
X260047D01*
X259639D01*
X259610Y354462D01*
X259593Y354462D01*
X259591D01*
X259561Y354687D01*
Y354687D01*
X259445Y355564D01*
X258969Y356713D01*
X258212Y357700D01*
X257225Y358458D01*
X256076Y358934D01*
X254843Y359096D01*
X253609Y358934D01*
X252460Y358458D01*
X251473Y357700D01*
X250716Y356713D01*
X250240Y355564D01*
X250124Y354687D01*
Y354687D01*
X250095Y354462D01*
X250092D01*
X250076D01*
X250046D01*
X249639D01*
X249610Y354462D01*
X249593Y354462D01*
X249590D01*
X249561Y354687D01*
Y354687D01*
X249445Y355564D01*
X248969Y356713D01*
X248212Y357700D01*
X247225Y358458D01*
X246076Y358934D01*
X244843Y359096D01*
X243609Y358934D01*
X242460Y358458D01*
X241473Y357700D01*
X240716Y356713D01*
X240240Y355564D01*
X240124Y354687D01*
Y354687D01*
X240095Y354462D01*
X240092D01*
X240075D01*
X240047D01*
X239639D01*
X239610Y354462D01*
X239593Y354462D01*
X239591D01*
X239561Y354687D01*
Y354687D01*
X239445Y355564D01*
X238969Y356713D01*
X238212Y357700D01*
X237225Y358458D01*
X236076Y358934D01*
X234843Y359096D01*
X233609Y358934D01*
X233033Y358695D01*
X230751Y360977D01*
X230165Y361369D01*
X229473Y361506D01*
D02*
G37*
G36*
X85512Y358522D02*
Y354921D01*
X89112D01*
X89044Y355436D01*
X88618Y356465D01*
X87940Y357349D01*
X87056Y358028D01*
X86026Y358454D01*
X85512Y358522D01*
D02*
G37*
G36*
X224252Y353740D02*
X220155D01*
X220240Y353098D01*
X220716Y351948D01*
X221473Y350961D01*
X222460Y350204D01*
X223609Y349728D01*
X224252Y349643D01*
Y353740D01*
D02*
G37*
G36*
X309797Y326181D02*
X306693D01*
Y323077D01*
X307079Y323128D01*
X307989Y323505D01*
X308770Y324104D01*
X309369Y324885D01*
X309746Y325795D01*
X309797Y326181D01*
D02*
G37*
G36*
X305512D02*
X302408D01*
X302459Y325795D01*
X302835Y324885D01*
X303435Y324104D01*
X304216Y323505D01*
X305126Y323128D01*
X305512Y323077D01*
Y326181D01*
D02*
G37*
G36*
Y330466D02*
X305126Y330416D01*
X304216Y330039D01*
X303435Y329439D01*
X302835Y328658D01*
X302459Y327748D01*
X302408Y327362D01*
X305512D01*
Y330466D01*
D02*
G37*
G36*
X299567Y359055D02*
X290118D01*
Y349606D01*
X299567D01*
Y359055D01*
D02*
G37*
G36*
X306693Y330466D02*
Y327362D01*
X309797D01*
X309746Y327748D01*
X309369Y328658D01*
X308770Y329439D01*
X307989Y330039D01*
X307079Y330416D01*
X306693Y330466D01*
D02*
G37*
G36*
X193465Y242904D02*
X192540Y242783D01*
X191678Y242426D01*
X190937Y241858D01*
X190369Y241118D01*
X190013Y240256D01*
X189891Y239331D01*
Y234212D01*
X190013Y233288D01*
X190369Y232426D01*
X190937Y231685D01*
X191678Y231118D01*
X192540Y230760D01*
X193465Y230639D01*
X194390Y230760D01*
X195252Y231118D01*
X195992Y231685D01*
X196560Y232426D01*
X196917Y233288D01*
X197038Y234212D01*
Y239331D01*
X196917Y240256D01*
X196560Y241118D01*
X195992Y241858D01*
X195252Y242426D01*
X194390Y242783D01*
X193465Y242904D01*
D02*
G37*
G36*
X183465D02*
X182540Y242783D01*
X181678Y242426D01*
X180938Y241858D01*
X180369Y241118D01*
X180013Y240256D01*
X179891Y239331D01*
Y234212D01*
X180013Y233288D01*
X180369Y232426D01*
X180938Y231685D01*
X181678Y231118D01*
X182540Y230760D01*
X183465Y230639D01*
X184390Y230760D01*
X185251Y231118D01*
X185992Y231685D01*
X186560Y232426D01*
X186917Y233288D01*
X187039Y234212D01*
Y239331D01*
X186917Y240256D01*
X186560Y241118D01*
X185992Y241858D01*
X185251Y242426D01*
X184390Y242783D01*
X183465Y242904D01*
D02*
G37*
G36*
X203465D02*
X202540Y242783D01*
X201678Y242426D01*
X200938Y241858D01*
X200370Y241118D01*
X200012Y240256D01*
X199891Y239331D01*
Y234212D01*
X200012Y233288D01*
X200370Y232426D01*
X200938Y231685D01*
X201678Y231118D01*
X202540Y230760D01*
X203465Y230639D01*
X204390Y230760D01*
X205252Y231118D01*
X205992Y231685D01*
X206560Y232426D01*
X206917Y233288D01*
X207038Y234212D01*
Y239331D01*
X206917Y240256D01*
X206560Y241118D01*
X205992Y241858D01*
X205252Y242426D01*
X204390Y242783D01*
X203465Y242904D01*
D02*
G37*
G36*
X223465D02*
X222540Y242783D01*
X221678Y242426D01*
X220937Y241858D01*
X220370Y241118D01*
X220012Y240256D01*
X219891Y239331D01*
Y234212D01*
X220012Y233288D01*
X220370Y232426D01*
X220937Y231685D01*
X221678Y231118D01*
X222540Y230760D01*
X223465Y230639D01*
X224390Y230760D01*
X225252Y231118D01*
X225992Y231685D01*
X226560Y232426D01*
X226917Y233288D01*
X227039Y234212D01*
Y239331D01*
X226917Y240256D01*
X226560Y241118D01*
X225992Y241858D01*
X225252Y242426D01*
X224390Y242783D01*
X223465Y242904D01*
D02*
G37*
G36*
X213465D02*
X212540Y242783D01*
X211678Y242426D01*
X210938Y241858D01*
X210369Y241118D01*
X210013Y240256D01*
X209891Y239331D01*
Y234212D01*
X210013Y233288D01*
X210369Y232426D01*
X210938Y231685D01*
X211678Y231118D01*
X212540Y230760D01*
X213465Y230639D01*
X214390Y230760D01*
X215251Y231118D01*
X215992Y231685D01*
X216560Y232426D01*
X216917Y233288D01*
X217038Y234212D01*
Y239331D01*
X216917Y240256D01*
X216560Y241118D01*
X215992Y241858D01*
X215251Y242426D01*
X214390Y242783D01*
X213465Y242904D01*
D02*
G37*
G36*
X173465D02*
X172540Y242783D01*
X171678Y242426D01*
X170938Y241858D01*
X170370Y241118D01*
X170012Y240256D01*
X169891Y239331D01*
Y234212D01*
X170012Y233288D01*
X170370Y232426D01*
X170938Y231685D01*
X171678Y231118D01*
X172540Y230760D01*
X173465Y230639D01*
X174390Y230760D01*
X175251Y231118D01*
X175992Y231685D01*
X176560Y232426D01*
X176917Y233288D01*
X177039Y234212D01*
Y239331D01*
X176917Y240256D01*
X176560Y241118D01*
X175992Y241858D01*
X175251Y242426D01*
X174390Y242783D01*
X173465Y242904D01*
D02*
G37*
G36*
X133465D02*
X132540Y242783D01*
X131678Y242426D01*
X130938Y241858D01*
X130369Y241118D01*
X130013Y240256D01*
X129891Y239331D01*
Y234212D01*
X130013Y233288D01*
X130369Y232426D01*
X130938Y231685D01*
X131678Y231118D01*
X132540Y230760D01*
X133465Y230639D01*
X134390Y230760D01*
X135251Y231118D01*
X135992Y231685D01*
X136560Y232426D01*
X136917Y233288D01*
X137039Y234212D01*
Y239331D01*
X136917Y240256D01*
X136560Y241118D01*
X135992Y241858D01*
X135251Y242426D01*
X134390Y242783D01*
X133465Y242904D01*
D02*
G37*
G36*
X103465D02*
X102540Y242783D01*
X101678Y242426D01*
X100937Y241858D01*
X100370Y241118D01*
X100013Y240256D01*
X99891Y239331D01*
Y234212D01*
X100013Y233288D01*
X100370Y232426D01*
X100937Y231685D01*
X101678Y231118D01*
X102540Y230760D01*
X103465Y230639D01*
X104390Y230760D01*
X105252Y231118D01*
X105992Y231685D01*
X106560Y232426D01*
X106917Y233288D01*
X107038Y234212D01*
Y239331D01*
X106917Y240256D01*
X106560Y241118D01*
X105992Y241858D01*
X105252Y242426D01*
X104390Y242783D01*
X103465Y242904D01*
D02*
G37*
G36*
X143465D02*
X142540Y242783D01*
X141678Y242426D01*
X140937Y241858D01*
X140369Y241118D01*
X140013Y240256D01*
X139891Y239331D01*
Y234212D01*
X140013Y233288D01*
X140369Y232426D01*
X140937Y231685D01*
X141678Y231118D01*
X142540Y230760D01*
X143465Y230639D01*
X144390Y230760D01*
X145252Y231118D01*
X145992Y231685D01*
X146560Y232426D01*
X146917Y233288D01*
X147038Y234212D01*
Y239331D01*
X146917Y240256D01*
X146560Y241118D01*
X145992Y241858D01*
X145252Y242426D01*
X144390Y242783D01*
X143465Y242904D01*
D02*
G37*
G36*
X163465D02*
X162540Y242783D01*
X161678Y242426D01*
X160938Y241858D01*
X160370Y241118D01*
X160012Y240256D01*
X159891Y239331D01*
Y234212D01*
X160012Y233288D01*
X160370Y232426D01*
X160938Y231685D01*
X161678Y231118D01*
X162540Y230760D01*
X163465Y230639D01*
X164390Y230760D01*
X165252Y231118D01*
X165992Y231685D01*
X166560Y232426D01*
X166917Y233288D01*
X167039Y234212D01*
Y239331D01*
X166917Y240256D01*
X166560Y241118D01*
X165992Y241858D01*
X165252Y242426D01*
X164390Y242783D01*
X163465Y242904D01*
D02*
G37*
G36*
X153465D02*
X152540Y242783D01*
X151678Y242426D01*
X150937Y241858D01*
X150370Y241118D01*
X150013Y240256D01*
X149891Y239331D01*
Y234212D01*
X150013Y233288D01*
X150370Y232426D01*
X150937Y231685D01*
X151678Y231118D01*
X152540Y230760D01*
X153465Y230639D01*
X154390Y230760D01*
X155252Y231118D01*
X155992Y231685D01*
X156560Y232426D01*
X156917Y233288D01*
X157038Y234212D01*
Y239331D01*
X156917Y240256D01*
X156560Y241118D01*
X155992Y241858D01*
X155252Y242426D01*
X154390Y242783D01*
X153465Y242904D01*
D02*
G37*
G36*
X301384Y286811D02*
X297835D01*
Y283262D01*
X298336Y283328D01*
X299353Y283749D01*
X300226Y284420D01*
X300896Y285293D01*
X301318Y286310D01*
X301384Y286811D01*
D02*
G37*
G36*
X296654D02*
X293105D01*
X293171Y286310D01*
X293592Y285293D01*
X294262Y284420D01*
X295136Y283749D01*
X296153Y283328D01*
X296654Y283262D01*
Y286811D01*
D02*
G37*
G36*
Y291541D02*
X296153Y291475D01*
X295136Y291054D01*
X294262Y290384D01*
X293592Y289510D01*
X293171Y288493D01*
X293105Y287992D01*
X296654D01*
Y291541D01*
D02*
G37*
G36*
X93465Y332905D02*
X92540Y332783D01*
X91678Y332426D01*
X90938Y331858D01*
X90369Y331118D01*
X90013Y330256D01*
X89891Y329331D01*
Y324213D01*
X90013Y323288D01*
X90369Y322426D01*
X90938Y321685D01*
X91678Y321117D01*
X92540Y320760D01*
X93465Y320639D01*
X94390Y320760D01*
X95252Y321117D01*
X95992Y321685D01*
X96560Y322426D01*
X96917Y323288D01*
X97039Y324213D01*
Y329331D01*
X96917Y330256D01*
X96560Y331118D01*
X95992Y331858D01*
X95252Y332426D01*
X94390Y332783D01*
X93465Y332905D01*
D02*
G37*
G36*
X297835Y291541D02*
Y287992D01*
X301384D01*
X301318Y288493D01*
X300896Y289510D01*
X300226Y290384D01*
X299353Y291054D01*
X298336Y291475D01*
X297835Y291541D01*
D02*
G37*
G36*
X324803Y291619D02*
X323712Y291475D01*
X322695Y291054D01*
X321821Y290384D01*
X321151Y289510D01*
X320730Y288493D01*
X320586Y287402D01*
X320730Y286310D01*
X321151Y285293D01*
X321821Y284420D01*
X322695Y283749D01*
X323712Y283328D01*
X324803Y283184D01*
X325895Y283328D01*
X326912Y283749D01*
X327785Y284420D01*
X328455Y285293D01*
X328877Y286310D01*
X329020Y287402D01*
X328877Y288493D01*
X328455Y289510D01*
X327785Y290384D01*
X326912Y291054D01*
X325895Y291475D01*
X324803Y291619D01*
D02*
G37*
G36*
X243465Y242904D02*
X242540Y242783D01*
X241678Y242426D01*
X240937Y241858D01*
X240370Y241118D01*
X240013Y240256D01*
X239891Y239331D01*
Y234212D01*
X240013Y233288D01*
X240370Y232426D01*
X240937Y231685D01*
X241678Y231118D01*
X242540Y230760D01*
X243465Y230639D01*
X244390Y230760D01*
X245251Y231118D01*
X245992Y231685D01*
X246560Y232426D01*
X246917Y233288D01*
X247039Y234212D01*
Y239331D01*
X246917Y240256D01*
X246560Y241118D01*
X245992Y241858D01*
X245251Y242426D01*
X244390Y242783D01*
X243465Y242904D01*
D02*
G37*
G36*
X233465D02*
X232540Y242783D01*
X231678Y242426D01*
X230938Y241858D01*
X230369Y241118D01*
X230012Y240256D01*
X229891Y239331D01*
Y234212D01*
X230012Y233288D01*
X230369Y232426D01*
X230938Y231685D01*
X231678Y231118D01*
X232540Y230760D01*
X233465Y230639D01*
X234390Y230760D01*
X235251Y231118D01*
X235992Y231685D01*
X236560Y232426D01*
X236917Y233288D01*
X237038Y234212D01*
Y239331D01*
X236917Y240256D01*
X236560Y241118D01*
X235992Y241858D01*
X235251Y242426D01*
X234390Y242783D01*
X233465Y242904D01*
D02*
G37*
G36*
X253465D02*
X252540Y242783D01*
X251678Y242426D01*
X250938Y241858D01*
X250370Y241118D01*
X250012Y240256D01*
X249891Y239331D01*
Y234212D01*
X250012Y233288D01*
X250370Y232426D01*
X250938Y231685D01*
X251678Y231118D01*
X252540Y230760D01*
X253465Y230639D01*
X254390Y230760D01*
X255252Y231118D01*
X255992Y231685D01*
X256560Y232426D01*
X256917Y233288D01*
X257038Y234212D01*
Y239331D01*
X256917Y240256D01*
X256560Y241118D01*
X255992Y241858D01*
X255252Y242426D01*
X254390Y242783D01*
X253465Y242904D01*
D02*
G37*
G36*
X273465D02*
X272540Y242783D01*
X271678Y242426D01*
X270937Y241858D01*
X270370Y241118D01*
X270012Y240256D01*
X269891Y239331D01*
Y234212D01*
X270012Y233288D01*
X270370Y232426D01*
X270937Y231685D01*
X271678Y231118D01*
X272540Y230760D01*
X273465Y230639D01*
X274390Y230760D01*
X275252Y231118D01*
X275992Y231685D01*
X276560Y232426D01*
X276917Y233288D01*
X277039Y234212D01*
Y239331D01*
X276917Y240256D01*
X276560Y241118D01*
X275992Y241858D01*
X275252Y242426D01*
X274390Y242783D01*
X273465Y242904D01*
D02*
G37*
G36*
X263465D02*
X262540Y242783D01*
X261678Y242426D01*
X260938Y241858D01*
X260369Y241118D01*
X260013Y240256D01*
X259891Y239331D01*
Y234212D01*
X260013Y233288D01*
X260369Y232426D01*
X260938Y231685D01*
X261678Y231118D01*
X262540Y230760D01*
X263465Y230639D01*
X264390Y230760D01*
X265251Y231118D01*
X265992Y231685D01*
X266560Y232426D01*
X266917Y233288D01*
X267038Y234212D01*
Y239331D01*
X266917Y240256D01*
X266560Y241118D01*
X265992Y241858D01*
X265251Y242426D01*
X264390Y242783D01*
X263465Y242904D01*
D02*
G37*
%LPD*%
D11*
X253465Y331588D02*
X258189D01*
X234065Y181850D02*
X276615Y224400D01*
X199600Y349500D02*
X204431Y354331D01*
X189300Y339200D02*
X199600Y349500D01*
X176576Y137400D02*
X243505D01*
X146654Y212598D02*
X158455Y224400D01*
X276615D01*
X283465Y231250D01*
Y236772D01*
X222913Y181850D02*
X234065D01*
X113465Y231215D02*
Y236772D01*
X102750Y220500D02*
X113465Y231215D01*
X68000Y220500D02*
X102750D01*
X68000Y206250D02*
Y220500D01*
Y206250D02*
X73740Y204724D01*
X159606Y158543D02*
X182913Y181850D01*
X141732Y158543D02*
X159606D01*
X102047Y181850D02*
X162913D01*
X78740Y158543D02*
X102047Y181850D01*
X203465Y326772D02*
Y332865D01*
X206427Y335827D01*
X246339D01*
X264843Y354331D01*
X213465Y326772D02*
Y331700D01*
X215229Y333465D01*
X251300D01*
X252135Y334300D01*
X254812D01*
X274843Y354331D01*
X208661Y148543D02*
X242205D01*
X249016Y141732D01*
X141732Y148543D02*
X175275D01*
X182087Y141732D01*
X163363Y172300D02*
X172913Y181850D01*
X145725Y172300D02*
X163363D01*
X115157Y141732D02*
X145725Y172300D01*
X78740Y148543D02*
X108346D01*
X115157Y141732D01*
X84921Y354331D02*
X89752Y349500D01*
X199600D01*
X283465Y321015D02*
Y326772D01*
X281250Y318800D02*
X283465Y321015D01*
X192500Y318800D02*
X281250D01*
X189300Y322000D02*
X192500Y318800D01*
X189300Y322000D02*
Y339200D01*
X204431Y354331D02*
X224843D01*
X158863Y207800D02*
X162913Y211850D01*
X141609Y207800D02*
X158863D01*
X136811Y212598D02*
X141609Y207800D01*
X198164Y216600D02*
X202913Y211850D01*
X167663Y216600D02*
X198164D01*
X162913Y211850D02*
X167663Y216600D01*
X202913Y211850D02*
X207664Y207100D01*
X218163D01*
X222913Y211850D01*
X172244Y141732D02*
X176576Y137400D01*
X297833D02*
X302165Y141732D01*
X239173D02*
X243505Y137400D01*
X297833D01*
X105315Y141732D02*
X109647Y137400D01*
X167912D01*
X172244Y141732D01*
X73740Y194724D02*
X81765Y186700D01*
X218064D01*
X222913Y181850D01*
X83740Y204724D02*
X109800D01*
X123465Y218389D01*
Y236772D01*
X296260Y157480D02*
X312008Y141732D01*
X280591Y157480D02*
X296260D01*
X309216Y333500D02*
X315945Y326772D01*
X260101Y333500D02*
X309216D01*
X258189Y331588D02*
X260101Y333500D01*
X253465Y326772D02*
Y331588D01*
X193465Y326772D02*
Y331965D01*
X200543Y339043D01*
X239554D01*
X254843Y354331D01*
X83740Y194724D02*
X118937D01*
X136811Y212598D01*
X229473Y359700D02*
X234843Y354331D01*
X100290Y359700D02*
X229473D01*
X94921Y354331D02*
X100290Y359700D01*
X283465Y326772D02*
X306102D01*
D12*
X83740Y194724D02*
D03*
X73740D02*
D03*
X83740Y204724D02*
D03*
X73740D02*
D03*
X83740Y214724D02*
D03*
D13*
X73740D02*
D03*
D14*
X222913Y211850D02*
D03*
D15*
X212913D02*
D03*
X202913D02*
D03*
X192913D02*
D03*
X182913D02*
D03*
X172913D02*
D03*
X162913D02*
D03*
X222913Y181850D02*
D03*
X212913D02*
D03*
X202913D02*
D03*
X192913D02*
D03*
X182913D02*
D03*
X172913D02*
D03*
X162913D02*
D03*
D16*
X312008Y141732D02*
D03*
X302165D02*
D03*
X182087D02*
D03*
X172244D02*
D03*
X306102Y326772D02*
D03*
X315945D02*
D03*
X146654Y212598D02*
D03*
X136811D02*
D03*
X115157Y141732D02*
D03*
X105315D02*
D03*
X249016D02*
D03*
X239173D02*
D03*
D17*
X280591Y157480D02*
D03*
X270591D02*
D03*
X208661Y148543D02*
D03*
Y158543D02*
D03*
X141732Y148543D02*
D03*
Y158543D02*
D03*
X297244Y287402D02*
D03*
X324803D02*
D03*
X78740Y148543D02*
D03*
Y158543D02*
D03*
D18*
X224843Y354331D02*
D03*
X234843D02*
D03*
X244843D02*
D03*
X254843D02*
D03*
X264843D02*
D03*
X274843D02*
D03*
X284843D02*
D03*
D19*
X294843D02*
D03*
D20*
X93465Y236772D02*
D03*
X103465D02*
D03*
X113465D02*
D03*
X123465D02*
D03*
X133465D02*
D03*
X143465D02*
D03*
X153465D02*
D03*
X163465D02*
D03*
X173465D02*
D03*
X183465D02*
D03*
X193465D02*
D03*
X203465D02*
D03*
X213465D02*
D03*
X223465D02*
D03*
X233465D02*
D03*
X243465D02*
D03*
X253465D02*
D03*
X263465D02*
D03*
X273465D02*
D03*
X283465D02*
D03*
X93465Y326772D02*
D03*
X103465D02*
D03*
X113465D02*
D03*
X123465D02*
D03*
X133465D02*
D03*
X143465D02*
D03*
X153465D02*
D03*
X163465D02*
D03*
X173465D02*
D03*
X183465D02*
D03*
X193465D02*
D03*
X203465D02*
D03*
X213465D02*
D03*
X223465D02*
D03*
X233465D02*
D03*
X243465D02*
D03*
X253465D02*
D03*
X263465D02*
D03*
X273465D02*
D03*
D21*
X283465D02*
D03*
D22*
X174921Y354331D02*
D03*
D23*
X164921D02*
D03*
X154921D02*
D03*
X144921D02*
D03*
X134921D02*
D03*
X124921D02*
D03*
X114921D02*
D03*
X104921D02*
D03*
X94921D02*
D03*
X84921D02*
D03*
M02*
