G04 Layer_Physical_Order=1*
G04 Layer_Color=25308*
%FSLAX25Y25*%
%MOIN*%
G70*
G01*
G75*
%ADD10R,0.27559X0.59055*%
%ADD11C,0.01181*%
%ADD12C,0.07874*%
%ADD13R,0.07874X0.07874*%
%ADD14R,0.05906X0.05906*%
%ADD15C,0.05906*%
%ADD16C,0.05118*%
%ADD17C,0.06000*%
%ADD18C,0.07087*%
%ADD19R,0.07087X0.07087*%
%ADD20O,0.04724X0.09843*%
%ADD21R,0.04724X0.09843*%
%ADD22R,0.06102X0.06102*%
%ADD23C,0.06102*%
G36*
X332438Y61263D02*
X61263D01*
Y371808D01*
X332438D01*
Y61263D01*
D02*
G37*
%LPC*%
G36*
X141732Y152761D02*
X140641Y152617D01*
X139624Y152196D01*
X138750Y151525D01*
X138080Y150652D01*
X137659Y149635D01*
X137515Y148543D01*
X137659Y147452D01*
X138080Y146435D01*
X138750Y145561D01*
X139624Y144891D01*
X140641Y144470D01*
X141732Y144326D01*
X142824Y144470D01*
X143841Y144891D01*
X144714Y145561D01*
X145384Y146435D01*
X145806Y147452D01*
X145949Y148543D01*
X145806Y149635D01*
X145384Y150652D01*
X144714Y151525D01*
X143841Y152196D01*
X142824Y152617D01*
X141732Y152761D01*
D02*
G37*
G36*
X78740D02*
X77649Y152617D01*
X76632Y152196D01*
X75758Y151525D01*
X75088Y150652D01*
X74667Y149635D01*
X74523Y148543D01*
X74667Y147452D01*
X75088Y146435D01*
X75758Y145561D01*
X76632Y144891D01*
X77649Y144470D01*
X78740Y144326D01*
X79832Y144470D01*
X80849Y144891D01*
X81722Y145561D01*
X82392Y146435D01*
X82814Y147452D01*
X82957Y148543D01*
X82814Y149635D01*
X82392Y150652D01*
X81722Y151525D01*
X80849Y152196D01*
X79832Y152617D01*
X78740Y152761D01*
D02*
G37*
G36*
X302756Y145427D02*
Y142323D01*
X305860D01*
X305809Y142709D01*
X305432Y143618D01*
X304833Y144400D01*
X304052Y144999D01*
X303142Y145376D01*
X302756Y145427D01*
D02*
G37*
G36*
X162913Y186020D02*
X161834Y185878D01*
X160829Y185461D01*
X159965Y184799D01*
X159302Y183935D01*
X158886Y182930D01*
X158744Y181850D01*
X158886Y180771D01*
X159302Y179766D01*
X159965Y178902D01*
X160829Y178240D01*
X161834Y177823D01*
X162913Y177681D01*
X163993Y177823D01*
X164998Y178240D01*
X165862Y178902D01*
X166524Y179766D01*
X166941Y180771D01*
X167083Y181850D01*
X166941Y182930D01*
X166524Y183935D01*
X165862Y184799D01*
X164998Y185461D01*
X163993Y185878D01*
X162913Y186020D01*
D02*
G37*
G36*
X123465Y242904D02*
X122540Y242783D01*
X121678Y242426D01*
X120938Y241858D01*
X120370Y241118D01*
X120012Y240256D01*
X119891Y239331D01*
Y234212D01*
X120012Y233288D01*
X120370Y232426D01*
X120938Y231685D01*
X121658Y231132D01*
Y213635D01*
X121796Y212944D01*
X122187Y212358D01*
X128723Y205823D01*
X129309Y205431D01*
X130000Y205294D01*
X168163D01*
X168854Y205431D01*
X169440Y205823D01*
X171556Y207938D01*
X171834Y207823D01*
X172913Y207681D01*
X173993Y207823D01*
X174271Y207938D01*
X179086Y203123D01*
X179673Y202731D01*
X180364Y202594D01*
X222923D01*
X266642Y158874D01*
X266517Y158572D01*
X266373Y157480D01*
X266517Y156389D01*
X266938Y155372D01*
X267609Y154498D01*
X268482Y153828D01*
X269499Y153407D01*
X270591Y153263D01*
X271682Y153407D01*
X272699Y153828D01*
X273573Y154498D01*
X274243Y155372D01*
X274664Y156389D01*
X274808Y157480D01*
X274664Y158572D01*
X274243Y159589D01*
X273573Y160462D01*
X272699Y161133D01*
X271682Y161554D01*
X270591Y161698D01*
X269499Y161554D01*
X269197Y161429D01*
X225894Y204732D01*
X226085Y205194D01*
X230323D01*
X276642Y158874D01*
X276517Y158572D01*
X276373Y157480D01*
X276517Y156389D01*
X276938Y155372D01*
X277609Y154498D01*
X278482Y153828D01*
X279499Y153407D01*
X280591Y153263D01*
X281682Y153407D01*
X282699Y153828D01*
X283573Y154498D01*
X284243Y155372D01*
X284664Y156389D01*
X284808Y157480D01*
X284664Y158572D01*
X284243Y159589D01*
X283573Y160462D01*
X282699Y161133D01*
X281682Y161554D01*
X280591Y161698D01*
X279499Y161554D01*
X279197Y161429D01*
X232348Y208277D01*
X231762Y208669D01*
X231071Y208806D01*
X227047D01*
Y211260D01*
X218780D01*
Y208806D01*
X216419D01*
X216172Y209306D01*
X216524Y209766D01*
X216941Y210771D01*
X217083Y211850D01*
X216941Y212930D01*
X216524Y213935D01*
X215862Y214799D01*
X214998Y215461D01*
X213993Y215878D01*
X212913Y216020D01*
X211834Y215878D01*
X210829Y215461D01*
X209965Y214799D01*
X209302Y213935D01*
X208886Y212930D01*
X208744Y211850D01*
X208886Y210771D01*
X209302Y209766D01*
X209655Y209306D01*
X209408Y208806D01*
X206418D01*
X206172Y209306D01*
X206524Y209766D01*
X206941Y210771D01*
X207005Y211260D01*
X198822D01*
X198886Y210771D01*
X199302Y209766D01*
X199655Y209306D01*
X199408Y208806D01*
X196418D01*
X196172Y209306D01*
X196524Y209766D01*
X196941Y210771D01*
X197083Y211850D01*
X196941Y212930D01*
X196524Y213935D01*
X195862Y214799D01*
X194998Y215461D01*
X193993Y215878D01*
X192913Y216020D01*
X191834Y215878D01*
X190829Y215461D01*
X189965Y214799D01*
X189303Y213935D01*
X188886Y212930D01*
X188744Y211850D01*
X188886Y210771D01*
X189303Y209766D01*
X189655Y209306D01*
X189408Y208806D01*
X188512D01*
X186826Y210493D01*
D01*
X186941Y210771D01*
X187083Y211850D01*
X186941Y212930D01*
X186524Y213935D01*
X185862Y214799D01*
X184998Y215461D01*
X183993Y215878D01*
X182913Y216020D01*
X181834Y215878D01*
X180829Y215461D01*
X179965Y214799D01*
X179303Y213935D01*
X178886Y212930D01*
X178744Y211850D01*
X178886Y210771D01*
X179303Y209766D01*
X179965Y208902D01*
X180829Y208240D01*
X181834Y207823D01*
X182913Y207681D01*
X183993Y207823D01*
X184271Y207938D01*
X185541Y206668D01*
X185350Y206206D01*
X181112D01*
X176825Y210493D01*
D01*
X176941Y210771D01*
X177083Y211850D01*
X176941Y212930D01*
X176524Y213935D01*
X175862Y214799D01*
X174998Y215461D01*
X173993Y215878D01*
X172913Y216020D01*
X171834Y215878D01*
X170829Y215461D01*
X169965Y214799D01*
X169302Y213935D01*
X168886Y212930D01*
X168744Y211850D01*
X168886Y210771D01*
X169001Y210493D01*
X167415Y208906D01*
X166430D01*
X166209Y209355D01*
X166524Y209766D01*
X166941Y210771D01*
X167005Y211260D01*
X158822D01*
X158886Y210771D01*
X159302Y209766D01*
X159618Y209355D01*
X159397Y208906D01*
X148768D01*
X148721Y208995D01*
X148637Y209406D01*
X149321Y209931D01*
X149921Y210712D01*
X150297Y211622D01*
X150426Y212598D01*
X150297Y213575D01*
X149921Y214485D01*
X149321Y215266D01*
X148540Y215865D01*
X147630Y216242D01*
X146654Y216371D01*
X145677Y216242D01*
X144767Y215865D01*
X143986Y215266D01*
X143387Y214485D01*
X143010Y213575D01*
X142881Y212598D01*
X143010Y211622D01*
X143387Y210712D01*
X143986Y209931D01*
X144670Y209406D01*
X144587Y208995D01*
X144539Y208906D01*
X138926D01*
X138878Y208995D01*
X138795Y209406D01*
X139479Y209931D01*
X140078Y210712D01*
X140455Y211622D01*
X140506Y212008D01*
X133116D01*
X133167Y211622D01*
X133544Y210712D01*
X134143Y209931D01*
X134827Y209406D01*
X134744Y208995D01*
X134696Y208906D01*
X130748D01*
X125271Y214384D01*
Y231132D01*
X125992Y231685D01*
X126560Y232426D01*
X126917Y233288D01*
X127039Y234212D01*
Y239331D01*
X126917Y240256D01*
X126560Y241118D01*
X125992Y241858D01*
X125251Y242426D01*
X124390Y242783D01*
X123465Y242904D01*
D02*
G37*
G36*
X113465D02*
X112540Y242783D01*
X111678Y242426D01*
X110938Y241858D01*
X110370Y241118D01*
X110012Y240256D01*
X109891Y239331D01*
Y234212D01*
X110012Y233288D01*
X110370Y232426D01*
X110938Y231685D01*
X111658Y231132D01*
Y200000D01*
X111796Y199309D01*
X112187Y198723D01*
X117987Y192923D01*
X118573Y192531D01*
X119265Y192394D01*
X189816D01*
X199001Y183208D01*
X198886Y182930D01*
X198744Y181850D01*
X198886Y180771D01*
X199302Y179766D01*
X199965Y178902D01*
X200829Y178240D01*
X201107Y178124D01*
Y164291D01*
X201244Y163600D01*
X201636Y163014D01*
X204713Y159937D01*
X204588Y159635D01*
X204444Y158543D01*
X204588Y157452D01*
X205009Y156435D01*
X205679Y155561D01*
X206553Y154891D01*
X207570Y154470D01*
X208661Y154326D01*
X209753Y154470D01*
X210770Y154891D01*
X211594Y155523D01*
X212025Y155432D01*
X212094Y155409D01*
Y154530D01*
X210055Y152492D01*
X209753Y152617D01*
X208661Y152761D01*
X207570Y152617D01*
X206553Y152196D01*
X205679Y151525D01*
X205009Y150652D01*
X204588Y149635D01*
X204444Y148543D01*
X204588Y147452D01*
X205009Y146435D01*
X205679Y145561D01*
X206553Y144891D01*
X207570Y144470D01*
X208661Y144326D01*
X209753Y144470D01*
X210770Y144891D01*
X211643Y145561D01*
X212314Y146435D01*
X212735Y147452D01*
X212879Y148543D01*
X212735Y149635D01*
X212610Y149937D01*
X215177Y152505D01*
X215569Y153091D01*
X215706Y153782D01*
Y169700D01*
X215569Y170391D01*
X215177Y170977D01*
X214720Y171435D01*
Y178124D01*
X214998Y178240D01*
X215862Y178902D01*
X216524Y179766D01*
X216941Y180771D01*
X217083Y181850D01*
X216941Y182930D01*
X216524Y183935D01*
X215862Y184799D01*
X214998Y185461D01*
X213993Y185878D01*
X212913Y186020D01*
X211834Y185878D01*
X210829Y185461D01*
X209965Y184799D01*
X209302Y183935D01*
X208886Y182930D01*
X208744Y181850D01*
X208886Y180771D01*
X209302Y179766D01*
X209965Y178902D01*
X210829Y178240D01*
X211107Y178124D01*
Y170687D01*
X211245Y169995D01*
X211636Y169409D01*
X212094Y168952D01*
Y161678D01*
X212025Y161655D01*
X211594Y161564D01*
X210770Y162196D01*
X209753Y162617D01*
X208661Y162761D01*
X207570Y162617D01*
X207268Y162492D01*
X204720Y165040D01*
Y178124D01*
X204998Y178240D01*
X205862Y178902D01*
X206524Y179766D01*
X206941Y180771D01*
X207083Y181850D01*
X206941Y182930D01*
X206524Y183935D01*
X205862Y184799D01*
X204998Y185461D01*
X203993Y185878D01*
X202913Y186020D01*
X201834Y185878D01*
X201556Y185763D01*
X191841Y195477D01*
X191255Y195869D01*
X190564Y196006D01*
X120013D01*
X115271Y200748D01*
Y231132D01*
X115992Y231685D01*
X116560Y232426D01*
X116917Y233288D01*
X117039Y234212D01*
Y239331D01*
X116917Y240256D01*
X116560Y241118D01*
X115992Y241858D01*
X115252Y242426D01*
X114390Y242783D01*
X113465Y242904D01*
D02*
G37*
G36*
X301575Y145427D02*
X301189Y145376D01*
X300279Y144999D01*
X299498Y144400D01*
X298898Y143618D01*
X298521Y142709D01*
X298471Y142323D01*
X301575D01*
Y145427D01*
D02*
G37*
G36*
X171654D02*
X171268Y145376D01*
X170358Y144999D01*
X169577Y144400D01*
X168977Y143618D01*
X168600Y142709D01*
X168550Y142323D01*
X171654D01*
Y145427D01*
D02*
G37*
G36*
X105905D02*
Y142323D01*
X109010D01*
X108959Y142709D01*
X108582Y143618D01*
X107983Y144400D01*
X107201Y144999D01*
X106291Y145376D01*
X105905Y145427D01*
D02*
G37*
G36*
X104725D02*
X104339Y145376D01*
X103429Y144999D01*
X102647Y144400D01*
X102048Y143618D01*
X101671Y142709D01*
X101620Y142323D01*
X104725D01*
Y145427D01*
D02*
G37*
G36*
X239764D02*
Y142323D01*
X242868D01*
X242817Y142709D01*
X242440Y143618D01*
X241841Y144400D01*
X241059Y144999D01*
X240150Y145376D01*
X239764Y145427D01*
D02*
G37*
G36*
X238583D02*
X238197Y145376D01*
X237287Y144999D01*
X236506Y144400D01*
X235906Y143618D01*
X235529Y142709D01*
X235478Y142323D01*
X238583D01*
Y145427D01*
D02*
G37*
G36*
X172835D02*
Y142323D01*
X175939D01*
X175888Y142709D01*
X175511Y143618D01*
X174912Y144400D01*
X174130Y144999D01*
X173221Y145376D01*
X172835Y145427D01*
D02*
G37*
G36*
X172913Y186020D02*
X171834Y185878D01*
X170829Y185461D01*
X169965Y184799D01*
X169302Y183935D01*
X168886Y182930D01*
X168744Y181850D01*
X168886Y180771D01*
X169302Y179766D01*
X169965Y178902D01*
X170829Y178240D01*
X171834Y177823D01*
X172913Y177681D01*
X173993Y177823D01*
X174998Y178240D01*
X175862Y178902D01*
X176524Y179766D01*
X176941Y180771D01*
X177083Y181850D01*
X176941Y182930D01*
X176524Y183935D01*
X175862Y184799D01*
X174998Y185461D01*
X173993Y185878D01*
X172913Y186020D01*
D02*
G37*
G36*
X227047Y215984D02*
X223504D01*
Y212441D01*
X227047D01*
Y215984D01*
D02*
G37*
G36*
X222323D02*
X218780D01*
Y212441D01*
X222323D01*
Y215984D01*
D02*
G37*
G36*
X203504Y215942D02*
Y212441D01*
X207005D01*
X206941Y212930D01*
X206524Y213935D01*
X205862Y214799D01*
X204998Y215461D01*
X203993Y215878D01*
X203504Y215942D01*
D02*
G37*
G36*
X103465Y242904D02*
X102540Y242783D01*
X101678Y242426D01*
X100937Y241858D01*
X100370Y241118D01*
X100013Y240256D01*
X99891Y239331D01*
Y234212D01*
X99982Y233521D01*
X85851Y219390D01*
X85076Y219711D01*
X83740Y219887D01*
X82404Y219711D01*
X81694Y219417D01*
X81411Y219841D01*
X91014Y229444D01*
X93465D01*
X94156Y229581D01*
X94742Y229973D01*
X95134Y230559D01*
X95244Y231114D01*
X95252Y231118D01*
X95992Y231685D01*
X96560Y232426D01*
X96917Y233288D01*
X97039Y234212D01*
Y239331D01*
X96917Y240256D01*
X96560Y241118D01*
X95992Y241858D01*
X95252Y242426D01*
X94390Y242783D01*
X93465Y242904D01*
X92540Y242783D01*
X91678Y242426D01*
X90938Y241858D01*
X90369Y241118D01*
X90013Y240256D01*
X89891Y239331D01*
Y234212D01*
X90013Y233288D01*
X89844Y232973D01*
X89574Y232919D01*
X88989Y232527D01*
X76304Y219843D01*
X68622D01*
Y212161D01*
X66723Y210262D01*
X66331Y209676D01*
X66194Y208984D01*
Y169284D01*
X66331Y168592D01*
X66723Y168006D01*
X74792Y159937D01*
X74667Y159635D01*
X74523Y158543D01*
X74667Y157452D01*
X75088Y156435D01*
X75758Y155561D01*
X76632Y154891D01*
X77649Y154470D01*
X78740Y154326D01*
X79832Y154470D01*
X80849Y154891D01*
X81722Y155561D01*
X82392Y156435D01*
X82814Y157452D01*
X82957Y158543D01*
X82814Y159635D01*
X82392Y160652D01*
X81722Y161525D01*
X80849Y162196D01*
X79832Y162617D01*
X78740Y162761D01*
X77649Y162617D01*
X77346Y162492D01*
X69806Y170032D01*
Y190662D01*
X70306Y190908D01*
X71159Y190254D01*
X72404Y189738D01*
X73740Y189562D01*
X75076Y189738D01*
X76321Y190254D01*
X77390Y191074D01*
X78211Y192143D01*
X78470Y192768D01*
X79011D01*
X79269Y192143D01*
X80090Y191074D01*
X81159Y190254D01*
X82404Y189738D01*
X83150Y189640D01*
Y194724D01*
X83740D01*
Y195315D01*
X88825D01*
X88727Y196061D01*
X88211Y197306D01*
X87391Y198375D01*
X86321Y199195D01*
X85697Y199454D01*
Y199995D01*
X86321Y200254D01*
X87391Y201074D01*
X88211Y202143D01*
X88727Y203388D01*
X88902Y204724D01*
X88727Y206061D01*
X88211Y207306D01*
X87391Y208375D01*
X86321Y209195D01*
X85697Y209454D01*
Y209995D01*
X86321Y210254D01*
X87391Y211074D01*
X88211Y212143D01*
X88532Y212918D01*
X89427D01*
X139613Y162732D01*
X139618Y162506D01*
X139521Y162117D01*
X138750Y161525D01*
X138080Y160652D01*
X137659Y159635D01*
X137515Y158543D01*
X137659Y157452D01*
X138080Y156435D01*
X138750Y155561D01*
X139624Y154891D01*
X140641Y154470D01*
X141732Y154326D01*
X142824Y154470D01*
X143841Y154891D01*
X144714Y155561D01*
X145384Y156435D01*
X145806Y157452D01*
X145949Y158543D01*
X145806Y159635D01*
X145384Y160652D01*
X144714Y161525D01*
X143841Y162196D01*
X143539Y162321D01*
Y163168D01*
X143401Y163859D01*
X143009Y164445D01*
X91453Y216002D01*
X90867Y216393D01*
X90176Y216531D01*
X88808D01*
X88601Y217031D01*
X102392Y230822D01*
X102540Y230760D01*
X103465Y230639D01*
X104390Y230760D01*
X105252Y231118D01*
X105992Y231685D01*
X106560Y232426D01*
X106917Y233288D01*
X107038Y234212D01*
Y239331D01*
X106917Y240256D01*
X106560Y241118D01*
X105992Y241858D01*
X105252Y242426D01*
X104390Y242783D01*
X103465Y242904D01*
D02*
G37*
G36*
X137401Y216293D02*
Y213189D01*
X140506D01*
X140455Y213575D01*
X140078Y214485D01*
X139479Y215266D01*
X138697Y215865D01*
X137787Y216242D01*
X137401Y216293D01*
D02*
G37*
G36*
X136221D02*
X135835Y216242D01*
X134925Y215865D01*
X134143Y215266D01*
X133544Y214485D01*
X133167Y213575D01*
X133116Y213189D01*
X136221D01*
Y216293D01*
D02*
G37*
G36*
X202323Y215942D02*
X201834Y215878D01*
X200829Y215461D01*
X199965Y214799D01*
X199302Y213935D01*
X198886Y212930D01*
X198822Y212441D01*
X202323D01*
Y215942D01*
D02*
G37*
G36*
X222913Y186020D02*
X221834Y185878D01*
X220829Y185461D01*
X219965Y184799D01*
X219303Y183935D01*
X218886Y182930D01*
X218744Y181850D01*
X218886Y180771D01*
X219303Y179766D01*
X219965Y178902D01*
X220829Y178240D01*
X221834Y177823D01*
X222913Y177681D01*
X223992Y177823D01*
X224998Y178240D01*
X225862Y178902D01*
X226524Y179766D01*
X226941Y180771D01*
X227083Y181850D01*
X226941Y182930D01*
X226524Y183935D01*
X225862Y184799D01*
X224998Y185461D01*
X223992Y185878D01*
X222913Y186020D01*
D02*
G37*
G36*
X192913D02*
X191834Y185878D01*
X190829Y185461D01*
X189965Y184799D01*
X189303Y183935D01*
X188886Y182930D01*
X188744Y181850D01*
X188886Y180771D01*
X189001Y180493D01*
X180809Y172301D01*
X180418Y171715D01*
X180280Y171024D01*
Y145032D01*
X180200Y144999D01*
X179419Y144400D01*
X178820Y143618D01*
X178443Y142709D01*
X178314Y141732D01*
X178443Y140756D01*
X178820Y139846D01*
X179296Y139225D01*
Y129134D01*
X166142D01*
Y67716D01*
X196063D01*
Y129134D01*
X182909D01*
Y138068D01*
X183063Y138088D01*
X183973Y138465D01*
X184754Y139065D01*
X185354Y139846D01*
X185731Y140756D01*
X185859Y141732D01*
X185731Y142709D01*
X185354Y143618D01*
X184754Y144400D01*
X183973Y144999D01*
X183893Y145032D01*
Y170275D01*
X191556Y177938D01*
X191834Y177823D01*
X192913Y177681D01*
X193993Y177823D01*
X194998Y178240D01*
X195862Y178902D01*
X196524Y179766D01*
X196941Y180771D01*
X197083Y181850D01*
X196941Y182930D01*
X196524Y183935D01*
X195862Y184799D01*
X194998Y185461D01*
X193993Y185878D01*
X192913Y186020D01*
D02*
G37*
G36*
X182913D02*
X181834Y185878D01*
X180829Y185461D01*
X179965Y184799D01*
X179303Y183935D01*
X178886Y182930D01*
X178744Y181850D01*
X178886Y180771D01*
X179303Y179766D01*
X179965Y178902D01*
X180829Y178240D01*
X181834Y177823D01*
X182913Y177681D01*
X183993Y177823D01*
X184998Y178240D01*
X185862Y178902D01*
X186524Y179766D01*
X186941Y180771D01*
X187083Y181850D01*
X186941Y182930D01*
X186524Y183935D01*
X185862Y184799D01*
X184998Y185461D01*
X183993Y185878D01*
X182913Y186020D01*
D02*
G37*
G36*
X163504Y215942D02*
Y212441D01*
X167005D01*
X166941Y212930D01*
X166524Y213935D01*
X165862Y214799D01*
X164998Y215461D01*
X163993Y215878D01*
X163504Y215942D01*
D02*
G37*
G36*
X162323D02*
X161834Y215878D01*
X160829Y215461D01*
X159965Y214799D01*
X159302Y213935D01*
X158886Y212930D01*
X158822Y212441D01*
X162323D01*
Y215942D01*
D02*
G37*
G36*
X88825Y194134D02*
X84331D01*
Y189640D01*
X85076Y189738D01*
X86321Y190254D01*
X87391Y191074D01*
X88211Y192143D01*
X88727Y193388D01*
X88825Y194134D01*
D02*
G37*
G36*
X298425Y97835D02*
X284055D01*
Y67716D01*
X298425D01*
Y97835D01*
D02*
G37*
G36*
X282874D02*
X268504D01*
Y67716D01*
X282874D01*
Y97835D01*
D02*
G37*
G36*
X249016Y145505D02*
X248039Y145376D01*
X247130Y144999D01*
X246348Y144400D01*
X245749Y143618D01*
X245372Y142709D01*
X245243Y141732D01*
X245372Y140756D01*
X245749Y139846D01*
X246225Y139225D01*
Y129134D01*
X233071D01*
Y67716D01*
X262992D01*
Y129134D01*
X249838D01*
Y138068D01*
X249992Y138088D01*
X250902Y138465D01*
X251683Y139065D01*
X252283Y139846D01*
X252660Y140756D01*
X252788Y141732D01*
X252660Y142709D01*
X252283Y143618D01*
X251683Y144400D01*
X250902Y144999D01*
X249992Y145376D01*
X249016Y145505D01*
D02*
G37*
G36*
X97638Y129134D02*
X83268D01*
Y99016D01*
X97638D01*
Y129134D01*
D02*
G37*
G36*
X82087D02*
X67717D01*
Y99016D01*
X82087D01*
Y129134D01*
D02*
G37*
G36*
X312008Y145505D02*
X311031Y145376D01*
X310122Y144999D01*
X309340Y144400D01*
X308741Y143618D01*
X308364Y142709D01*
X308235Y141732D01*
X308364Y140756D01*
X308741Y139846D01*
X309340Y139065D01*
X310122Y138465D01*
X311031Y138088D01*
X312008Y137960D01*
X312660Y138046D01*
X313140Y137664D01*
X313154Y137626D01*
Y129134D01*
X300000D01*
Y67716D01*
X329921D01*
Y129134D01*
X316767D01*
Y138779D01*
X316630Y139471D01*
X316238Y140057D01*
X315619Y140676D01*
X315652Y140756D01*
X315780Y141732D01*
X315652Y142709D01*
X315275Y143618D01*
X314675Y144400D01*
X313894Y144999D01*
X312984Y145376D01*
X312008Y145505D01*
D02*
G37*
G36*
X231496Y97835D02*
X217126D01*
Y67716D01*
X231496D01*
Y97835D01*
D02*
G37*
G36*
X115157Y145505D02*
X114181Y145376D01*
X113271Y144999D01*
X112490Y144400D01*
X111890Y143618D01*
X111513Y142709D01*
X111385Y141732D01*
X111513Y140756D01*
X111890Y139846D01*
X112367Y139225D01*
Y129134D01*
X99213D01*
Y67716D01*
X129134D01*
Y129134D01*
X115980D01*
Y138068D01*
X116134Y138088D01*
X117044Y138465D01*
X117825Y139065D01*
X118424Y139846D01*
X118801Y140756D01*
X118930Y141732D01*
X118801Y142709D01*
X118424Y143618D01*
X117825Y144400D01*
X117044Y144999D01*
X116134Y145376D01*
X115157Y145505D01*
D02*
G37*
G36*
X97638Y97835D02*
X83268D01*
Y67716D01*
X97638D01*
Y97835D01*
D02*
G37*
G36*
X82087D02*
X67717D01*
Y67716D01*
X82087D01*
Y97835D01*
D02*
G37*
G36*
X215945D02*
X201575D01*
Y67716D01*
X215945D01*
Y97835D01*
D02*
G37*
G36*
X164567D02*
X150197D01*
Y67716D01*
X164567D01*
Y97835D01*
D02*
G37*
G36*
X149016D02*
X134646D01*
Y67716D01*
X149016D01*
Y97835D01*
D02*
G37*
G36*
Y129134D02*
X134646D01*
Y99016D01*
X149016D01*
Y129134D01*
D02*
G37*
G36*
X238583Y141142D02*
X235478D01*
X235529Y140756D01*
X235906Y139846D01*
X236506Y139065D01*
X237287Y138465D01*
X238197Y138088D01*
X238583Y138038D01*
Y141142D01*
D02*
G37*
G36*
X175939D02*
X172835D01*
Y138038D01*
X173221Y138088D01*
X174130Y138465D01*
X174912Y139065D01*
X175511Y139846D01*
X175888Y140756D01*
X175939Y141142D01*
D02*
G37*
G36*
X171654D02*
X168550D01*
X168600Y140756D01*
X168977Y139846D01*
X169577Y139065D01*
X170358Y138465D01*
X171268Y138088D01*
X171654Y138038D01*
Y141142D01*
D02*
G37*
G36*
X305860D02*
X302756D01*
Y138038D01*
X303142Y138088D01*
X304052Y138465D01*
X304833Y139065D01*
X305432Y139846D01*
X305809Y140756D01*
X305860Y141142D01*
D02*
G37*
G36*
X301575D02*
X298471D01*
X298521Y140756D01*
X298898Y139846D01*
X299498Y139065D01*
X300279Y138465D01*
X301189Y138088D01*
X301575Y138038D01*
Y141142D01*
D02*
G37*
G36*
X242868D02*
X239764D01*
Y138038D01*
X240150Y138088D01*
X241059Y138465D01*
X241841Y139065D01*
X242440Y139846D01*
X242817Y140756D01*
X242868Y141142D01*
D02*
G37*
G36*
X109010D02*
X105905D01*
Y138038D01*
X106291Y138088D01*
X107201Y138465D01*
X107983Y139065D01*
X108582Y139846D01*
X108959Y140756D01*
X109010Y141142D01*
D02*
G37*
G36*
X231496Y129134D02*
X217126D01*
Y99016D01*
X231496D01*
Y129134D01*
D02*
G37*
G36*
X215945D02*
X201575D01*
Y99016D01*
X215945D01*
Y129134D01*
D02*
G37*
G36*
X164567D02*
X150197D01*
Y99016D01*
X164567D01*
Y129134D01*
D02*
G37*
G36*
X104725Y141142D02*
X101620D01*
X101671Y140756D01*
X102048Y139846D01*
X102647Y139065D01*
X103429Y138465D01*
X104339Y138088D01*
X104725Y138038D01*
Y141142D01*
D02*
G37*
G36*
X298425Y129134D02*
X284055D01*
Y99016D01*
X298425D01*
Y129134D01*
D02*
G37*
G36*
X282874D02*
X268504D01*
Y99016D01*
X282874D01*
Y129134D01*
D02*
G37*
G36*
X133465Y242904D02*
X132540Y242783D01*
X131678Y242426D01*
X130938Y241858D01*
X130369Y241118D01*
X130013Y240256D01*
X129891Y239331D01*
Y234212D01*
X130013Y233288D01*
X130369Y232426D01*
X130938Y231685D01*
X131678Y231118D01*
X132540Y230760D01*
X133465Y230639D01*
X134390Y230760D01*
X135251Y231118D01*
X135992Y231685D01*
X136560Y232426D01*
X136917Y233288D01*
X137039Y234212D01*
Y239331D01*
X136917Y240256D01*
X136560Y241118D01*
X135992Y241858D01*
X135251Y242426D01*
X134390Y242783D01*
X133465Y242904D01*
D02*
G37*
G36*
X287008Y326181D02*
X284055D01*
Y320669D01*
X287008D01*
Y326181D01*
D02*
G37*
G36*
X282874D02*
X279921D01*
Y320669D01*
X282874D01*
Y326181D01*
D02*
G37*
G36*
X273465Y332905D02*
X272540Y332783D01*
X271678Y332426D01*
X270937Y331858D01*
X270370Y331118D01*
X270012Y330256D01*
X269891Y329331D01*
Y324213D01*
X270012Y323288D01*
X270370Y322426D01*
X270937Y321685D01*
X271678Y321117D01*
X272540Y320760D01*
X273465Y320639D01*
X274390Y320760D01*
X275252Y321117D01*
X275992Y321685D01*
X276560Y322426D01*
X276917Y323288D01*
X277039Y324213D01*
Y329331D01*
X276917Y330256D01*
X276560Y331118D01*
X275992Y331858D01*
X275252Y332426D01*
X274390Y332783D01*
X273465Y332905D01*
D02*
G37*
G36*
X282874Y332874D02*
X279921D01*
Y327362D01*
X282874D01*
Y332874D01*
D02*
G37*
G36*
X309797Y326181D02*
X306693D01*
Y323077D01*
X307079Y323128D01*
X307989Y323505D01*
X308770Y324104D01*
X309369Y324885D01*
X309746Y325795D01*
X309797Y326181D01*
D02*
G37*
G36*
X305512D02*
X302408D01*
X302459Y325795D01*
X302835Y324885D01*
X303435Y324104D01*
X304216Y323505D01*
X305126Y323128D01*
X305512Y323077D01*
Y326181D01*
D02*
G37*
G36*
X263465Y332905D02*
X262540Y332783D01*
X261678Y332426D01*
X260938Y331858D01*
X260369Y331118D01*
X260013Y330256D01*
X259891Y329331D01*
Y324213D01*
X260013Y323288D01*
X260369Y322426D01*
X260938Y321685D01*
X261678Y321117D01*
X262540Y320760D01*
X263465Y320639D01*
X264390Y320760D01*
X265251Y321117D01*
X265992Y321685D01*
X266560Y322426D01*
X266917Y323288D01*
X267038Y324213D01*
Y329331D01*
X266917Y330256D01*
X266560Y331118D01*
X265992Y331858D01*
X265251Y332426D01*
X264390Y332783D01*
X263465Y332905D01*
D02*
G37*
G36*
X213465D02*
X212540Y332783D01*
X211678Y332426D01*
X210938Y331858D01*
X210369Y331118D01*
X210013Y330256D01*
X209891Y329331D01*
Y324213D01*
X210013Y323288D01*
X210369Y322426D01*
X210938Y321685D01*
X211678Y321117D01*
X212540Y320760D01*
X213465Y320639D01*
X214390Y320760D01*
X215251Y321117D01*
X215992Y321685D01*
X216560Y322426D01*
X216917Y323288D01*
X217038Y324213D01*
Y329331D01*
X216917Y330256D01*
X216560Y331118D01*
X215992Y331858D01*
X215251Y332426D01*
X214390Y332783D01*
X213465Y332905D01*
D02*
G37*
G36*
X203465D02*
X202540Y332783D01*
X201678Y332426D01*
X200938Y331858D01*
X200370Y331118D01*
X200012Y330256D01*
X199891Y329331D01*
Y324213D01*
X200012Y323288D01*
X200370Y322426D01*
X200938Y321685D01*
X201678Y321117D01*
X202540Y320760D01*
X203465Y320639D01*
X204390Y320760D01*
X205252Y321117D01*
X205992Y321685D01*
X206560Y322426D01*
X206917Y323288D01*
X207038Y324213D01*
Y329331D01*
X206917Y330256D01*
X206560Y331118D01*
X205992Y331858D01*
X205252Y332426D01*
X204390Y332783D01*
X203465Y332905D01*
D02*
G37*
G36*
X193465D02*
X192540Y332783D01*
X191678Y332426D01*
X190937Y331858D01*
X190369Y331118D01*
X190013Y330256D01*
X189891Y329331D01*
Y324213D01*
X190013Y323288D01*
X190369Y322426D01*
X190937Y321685D01*
X191678Y321117D01*
X192540Y320760D01*
X193465Y320639D01*
X194390Y320760D01*
X195252Y321117D01*
X195992Y321685D01*
X196560Y322426D01*
X196917Y323288D01*
X197038Y324213D01*
Y329331D01*
X196917Y330256D01*
X196560Y331118D01*
X195992Y331858D01*
X195252Y332426D01*
X194390Y332783D01*
X193465Y332905D01*
D02*
G37*
G36*
X243465D02*
X242540Y332783D01*
X241678Y332426D01*
X240937Y331858D01*
X240370Y331118D01*
X240013Y330256D01*
X239891Y329331D01*
Y324213D01*
X240013Y323288D01*
X240370Y322426D01*
X240937Y321685D01*
X241678Y321117D01*
X242540Y320760D01*
X243465Y320639D01*
X244390Y320760D01*
X245251Y321117D01*
X245992Y321685D01*
X246560Y322426D01*
X246917Y323288D01*
X247039Y324213D01*
Y329331D01*
X246917Y330256D01*
X246560Y331118D01*
X245992Y331858D01*
X245251Y332426D01*
X244390Y332783D01*
X243465Y332905D01*
D02*
G37*
G36*
X233465D02*
X232540Y332783D01*
X231678Y332426D01*
X230938Y331858D01*
X230369Y331118D01*
X230012Y330256D01*
X229891Y329331D01*
Y324213D01*
X230012Y323288D01*
X230369Y322426D01*
X230938Y321685D01*
X231678Y321117D01*
X232540Y320760D01*
X233465Y320639D01*
X234390Y320760D01*
X235251Y321117D01*
X235992Y321685D01*
X236560Y322426D01*
X236917Y323288D01*
X237038Y324213D01*
Y329331D01*
X236917Y330256D01*
X236560Y331118D01*
X235992Y331858D01*
X235251Y332426D01*
X234390Y332783D01*
X233465Y332905D01*
D02*
G37*
G36*
X223465D02*
X222540Y332783D01*
X221678Y332426D01*
X220937Y331858D01*
X220370Y331118D01*
X220012Y330256D01*
X219891Y329331D01*
Y324213D01*
X220012Y323288D01*
X220370Y322426D01*
X220937Y321685D01*
X221678Y321117D01*
X222540Y320760D01*
X223465Y320639D01*
X224390Y320760D01*
X225252Y321117D01*
X225992Y321685D01*
X226560Y322426D01*
X226917Y323288D01*
X227039Y324213D01*
Y329331D01*
X226917Y330256D01*
X226560Y331118D01*
X225992Y331858D01*
X225252Y332426D01*
X224390Y332783D01*
X223465Y332905D01*
D02*
G37*
G36*
X287008Y332874D02*
X284055D01*
Y327362D01*
X287008D01*
Y332874D01*
D02*
G37*
G36*
X84331Y358522D02*
X83816Y358454D01*
X82787Y358028D01*
X81903Y357349D01*
X81224Y356465D01*
X80798Y355436D01*
X80730Y354921D01*
X84331D01*
Y358522D01*
D02*
G37*
G36*
X284843Y359096D02*
X283609Y358934D01*
X282460Y358458D01*
X281473Y357700D01*
X280716Y356713D01*
X280240Y355564D01*
X280124Y354687D01*
Y354687D01*
X280095Y354462D01*
X280092D01*
X280076D01*
X280047D01*
X279639D01*
X279610Y354462D01*
X279593Y354462D01*
X279591D01*
X279561Y354687D01*
Y354687D01*
X279445Y355564D01*
X278969Y356713D01*
X278212Y357700D01*
X277225Y358458D01*
X276076Y358934D01*
X274843Y359096D01*
X273609Y358934D01*
X272460Y358458D01*
X271473Y357700D01*
X270716Y356713D01*
X270240Y355564D01*
X270124Y354687D01*
Y354687D01*
X270095Y354462D01*
X270092D01*
X270075D01*
X270046D01*
X269639D01*
X269610Y354462D01*
X269593Y354462D01*
X269590D01*
X269561Y354687D01*
Y354687D01*
X269445Y355564D01*
X268969Y356713D01*
X268212Y357700D01*
X267225Y358458D01*
X266076Y358934D01*
X264843Y359096D01*
X263609Y358934D01*
X262460Y358458D01*
X261473Y357700D01*
X260716Y356713D01*
X260240Y355564D01*
X260124Y354687D01*
Y354687D01*
X260095Y354462D01*
X260092D01*
X260075D01*
X260047D01*
X259639D01*
X259610Y354462D01*
X259593Y354462D01*
X259591D01*
X259561Y354687D01*
Y354687D01*
X259445Y355564D01*
X258969Y356713D01*
X258212Y357700D01*
X257225Y358458D01*
X256076Y358934D01*
X254843Y359096D01*
X253609Y358934D01*
X252460Y358458D01*
X251473Y357700D01*
X250716Y356713D01*
X250240Y355564D01*
X250124Y354687D01*
Y354687D01*
X250095Y354462D01*
X250092D01*
X250076D01*
X250046D01*
X249639D01*
X249610Y354462D01*
X249593Y354462D01*
X249590D01*
X249561Y354687D01*
Y354687D01*
X249445Y355564D01*
X248969Y356713D01*
X248212Y357700D01*
X247225Y358458D01*
X246076Y358934D01*
X244843Y359096D01*
X243609Y358934D01*
X242460Y358458D01*
X241473Y357700D01*
X240716Y356713D01*
X240240Y355564D01*
X240124Y354687D01*
Y354687D01*
X240095Y354462D01*
X240092D01*
X240075D01*
X240047D01*
X239639D01*
X239610Y354462D01*
X239593Y354462D01*
X239591D01*
X239561Y354687D01*
Y354687D01*
X239445Y355564D01*
X238969Y356713D01*
X238212Y357700D01*
X237225Y358458D01*
X236076Y358934D01*
X234843Y359096D01*
X233609Y358934D01*
X232460Y358458D01*
X231473Y357700D01*
X230716Y356713D01*
X230240Y355564D01*
X230124Y354687D01*
Y354687D01*
X230095Y354462D01*
X230095D01*
X230077Y354331D01*
X230095Y354199D01*
X230095D01*
X230124Y353975D01*
Y353975D01*
X230240Y353098D01*
X230716Y351948D01*
X231473Y350961D01*
X232460Y350204D01*
X233609Y349728D01*
X234843Y349566D01*
X236076Y349728D01*
X236652Y349967D01*
X251658Y334961D01*
Y332411D01*
X250938Y331858D01*
X250370Y331118D01*
X250012Y330256D01*
X249891Y329331D01*
Y324213D01*
X250012Y323288D01*
X250370Y322426D01*
X250938Y321685D01*
X251678Y321117D01*
X252540Y320760D01*
X253465Y320639D01*
X254390Y320760D01*
X255252Y321117D01*
X255992Y321685D01*
X256560Y322426D01*
X256917Y323288D01*
X257038Y324213D01*
Y329331D01*
X256917Y330256D01*
X256560Y331118D01*
X255992Y331858D01*
X255271Y332411D01*
Y335709D01*
X255134Y336400D01*
X254742Y336986D01*
X239207Y352521D01*
X239445Y353098D01*
X239561Y353975D01*
Y353975D01*
X239591Y354199D01*
X239593D01*
X239610D01*
X239639D01*
X240047D01*
X240075Y354199D01*
X240092Y354199D01*
X240095D01*
X240124Y353975D01*
Y353975D01*
X240240Y353098D01*
X240716Y351948D01*
X241473Y350961D01*
X242460Y350204D01*
X243609Y349728D01*
X244843Y349566D01*
X246076Y349728D01*
X247225Y350204D01*
X248212Y350961D01*
X248969Y351948D01*
X249445Y353098D01*
X249561Y353975D01*
Y353975D01*
X249590Y354199D01*
X249593D01*
X249610D01*
X249639D01*
X250046D01*
X250076Y354199D01*
X250092Y354199D01*
X250095D01*
X250124Y353975D01*
Y353975D01*
X250240Y353098D01*
X250716Y351948D01*
X251473Y350961D01*
X252460Y350204D01*
X253609Y349728D01*
X254843Y349566D01*
X256076Y349728D01*
X257225Y350204D01*
X258212Y350961D01*
X258969Y351948D01*
X259445Y353098D01*
X259561Y353975D01*
Y353975D01*
X259591Y354199D01*
X259593D01*
X259610D01*
X259639D01*
X260047D01*
X260075Y354199D01*
X260092Y354199D01*
X260095D01*
X260124Y353975D01*
Y353975D01*
X260240Y353098D01*
X260716Y351948D01*
X261473Y350961D01*
X262460Y350204D01*
X263609Y349728D01*
X264843Y349566D01*
X266076Y349728D01*
X267225Y350204D01*
X268212Y350961D01*
X268969Y351948D01*
X269445Y353098D01*
X269561Y353975D01*
Y353975D01*
X269590Y354199D01*
X269593D01*
X269610D01*
X269639D01*
X270046D01*
X270075Y354199D01*
X270092Y354199D01*
X270095D01*
X270124Y353975D01*
Y353975D01*
X270240Y353098D01*
X270716Y351948D01*
X271473Y350961D01*
X272460Y350204D01*
X273609Y349728D01*
X274843Y349566D01*
X276076Y349728D01*
X277225Y350204D01*
X278212Y350961D01*
X278969Y351948D01*
X279445Y353098D01*
X279561Y353975D01*
Y353975D01*
X279591Y354199D01*
X279593D01*
X279610D01*
X279639D01*
X280047D01*
X280076Y354199D01*
X280092Y354199D01*
X280095D01*
X280124Y353975D01*
Y353975D01*
X280240Y353098D01*
X280716Y351948D01*
X281473Y350961D01*
X282460Y350204D01*
X283609Y349728D01*
X284843Y349566D01*
X286076Y349728D01*
X287225Y350204D01*
X288212Y350961D01*
X288969Y351948D01*
X289445Y353098D01*
X289608Y354331D01*
X289445Y355564D01*
X288969Y356713D01*
X288212Y357700D01*
X287225Y358458D01*
X286076Y358934D01*
X284843Y359096D01*
D02*
G37*
G36*
X89112Y353740D02*
X85512D01*
Y350140D01*
X86026Y350207D01*
X87056Y350634D01*
X87940Y351312D01*
X88618Y352196D01*
X89044Y353226D01*
X89112Y353740D01*
D02*
G37*
G36*
X225433Y359018D02*
Y354921D01*
X229530D01*
X229445Y355564D01*
X228969Y356713D01*
X228212Y357700D01*
X227225Y358458D01*
X226076Y358934D01*
X225433Y359018D01*
D02*
G37*
G36*
X224252D02*
X223609Y358934D01*
X222460Y358458D01*
X221473Y357700D01*
X220716Y356713D01*
X220240Y355564D01*
X220155Y354921D01*
X224252D01*
Y359018D01*
D02*
G37*
G36*
X85512Y358522D02*
Y354921D01*
X89112D01*
X89044Y355436D01*
X88618Y356465D01*
X87940Y357349D01*
X87056Y358028D01*
X86026Y358454D01*
X85512Y358522D01*
D02*
G37*
G36*
X84331Y353740D02*
X80730D01*
X80798Y353226D01*
X81224Y352196D01*
X81903Y351312D01*
X82787Y350634D01*
X83816Y350207D01*
X84331Y350140D01*
Y353740D01*
D02*
G37*
G36*
X299567Y359055D02*
X290118D01*
Y349606D01*
X299567D01*
Y359055D01*
D02*
G37*
G36*
X306693Y330466D02*
Y327362D01*
X309797D01*
X309746Y327748D01*
X309369Y328658D01*
X308770Y329439D01*
X307989Y330039D01*
X307079Y330416D01*
X306693Y330466D01*
D02*
G37*
G36*
X305512D02*
X305126Y330416D01*
X304216Y330039D01*
X303435Y329439D01*
X302835Y328658D01*
X302459Y327748D01*
X302408Y327362D01*
X305512D01*
Y330466D01*
D02*
G37*
G36*
X94921Y358600D02*
X93816Y358454D01*
X92787Y358028D01*
X91903Y357349D01*
X91224Y356465D01*
X90798Y355436D01*
X90652Y354331D01*
X90798Y353226D01*
X91224Y352196D01*
X91903Y351312D01*
X92787Y350634D01*
X93816Y350207D01*
X94921Y350062D01*
X96026Y350207D01*
X97056Y350634D01*
X97940Y351312D01*
X98618Y352196D01*
X99045Y353226D01*
X99190Y354331D01*
X99045Y355436D01*
X98618Y356465D01*
X97940Y357349D01*
X97056Y358028D01*
X96026Y358454D01*
X94921Y358600D01*
D02*
G37*
G36*
X229530Y353740D02*
X225433D01*
Y349643D01*
X226076Y349728D01*
X227225Y350204D01*
X228212Y350961D01*
X228969Y351948D01*
X229445Y353098D01*
X229530Y353740D01*
D02*
G37*
G36*
X224252D02*
X220155D01*
X220240Y353098D01*
X220716Y351948D01*
X221473Y350961D01*
X222460Y350204D01*
X223609Y349728D01*
X224252Y349643D01*
Y353740D01*
D02*
G37*
G36*
X164921Y358600D02*
X163816Y358454D01*
X162787Y358028D01*
X161903Y357349D01*
X161224Y356465D01*
X160798Y355436D01*
X160652Y354331D01*
X160798Y353226D01*
X161224Y352196D01*
X161903Y351312D01*
X162787Y350634D01*
X163816Y350207D01*
X164921Y350062D01*
X166026Y350207D01*
X166354Y350343D01*
X171658Y345039D01*
Y332411D01*
X170938Y331858D01*
X170370Y331118D01*
X170012Y330256D01*
X169891Y329331D01*
Y324213D01*
X170012Y323288D01*
X170370Y322426D01*
X170938Y321685D01*
X171678Y321117D01*
X172540Y320760D01*
X173465Y320639D01*
X174390Y320760D01*
X175251Y321117D01*
X175992Y321685D01*
X176560Y322426D01*
X176917Y323288D01*
X177039Y324213D01*
Y329331D01*
X176917Y330256D01*
X176560Y331118D01*
X175992Y331858D01*
X175271Y332411D01*
Y345787D01*
X175134Y346479D01*
X174742Y347065D01*
X172170Y349637D01*
X172361Y350098D01*
X176599D01*
X181658Y345039D01*
Y332411D01*
X180938Y331858D01*
X180369Y331118D01*
X180013Y330256D01*
X179891Y329331D01*
Y324213D01*
X180013Y323288D01*
X180369Y322426D01*
X180938Y321685D01*
X181678Y321117D01*
X182540Y320760D01*
X183465Y320639D01*
X184390Y320760D01*
X185251Y321117D01*
X185992Y321685D01*
X186560Y322426D01*
X186917Y323288D01*
X187039Y324213D01*
Y329331D01*
X186917Y330256D01*
X186560Y331118D01*
X185992Y331858D01*
X185271Y332411D01*
Y345787D01*
X185134Y346479D01*
X184742Y347065D01*
X179154Y352653D01*
Y358563D01*
X170689D01*
Y351771D01*
X170227Y351580D01*
X168909Y352898D01*
X169044Y353226D01*
X169190Y354331D01*
X169044Y355436D01*
X168618Y356465D01*
X167940Y357349D01*
X167056Y358028D01*
X166026Y358454D01*
X164921Y358600D01*
D02*
G37*
G36*
X233465Y242904D02*
X232540Y242783D01*
X231678Y242426D01*
X230938Y241858D01*
X230369Y241118D01*
X230012Y240256D01*
X229891Y239331D01*
Y234212D01*
X230012Y233288D01*
X230369Y232426D01*
X230938Y231685D01*
X231678Y231118D01*
X232540Y230760D01*
X233465Y230639D01*
X234390Y230760D01*
X235251Y231118D01*
X235992Y231685D01*
X236560Y232426D01*
X236917Y233288D01*
X237038Y234212D01*
Y239331D01*
X236917Y240256D01*
X236560Y241118D01*
X235992Y241858D01*
X235251Y242426D01*
X234390Y242783D01*
X233465Y242904D01*
D02*
G37*
G36*
X223465D02*
X222540Y242783D01*
X221678Y242426D01*
X220937Y241858D01*
X220370Y241118D01*
X220012Y240256D01*
X219891Y239331D01*
Y234212D01*
X220012Y233288D01*
X220370Y232426D01*
X220937Y231685D01*
X221678Y231118D01*
X222540Y230760D01*
X223465Y230639D01*
X224390Y230760D01*
X225252Y231118D01*
X225992Y231685D01*
X226560Y232426D01*
X226917Y233288D01*
X227039Y234212D01*
Y239331D01*
X226917Y240256D01*
X226560Y241118D01*
X225992Y241858D01*
X225252Y242426D01*
X224390Y242783D01*
X223465Y242904D01*
D02*
G37*
G36*
X213465D02*
X212540Y242783D01*
X211678Y242426D01*
X210938Y241858D01*
X210369Y241118D01*
X210013Y240256D01*
X209891Y239331D01*
Y234212D01*
X210013Y233288D01*
X210369Y232426D01*
X210938Y231685D01*
X211678Y231118D01*
X212540Y230760D01*
X213465Y230639D01*
X214390Y230760D01*
X215251Y231118D01*
X215992Y231685D01*
X216560Y232426D01*
X216917Y233288D01*
X217038Y234212D01*
Y239331D01*
X216917Y240256D01*
X216560Y241118D01*
X215992Y241858D01*
X215251Y242426D01*
X214390Y242783D01*
X213465Y242904D01*
D02*
G37*
G36*
X263465D02*
X262540Y242783D01*
X261678Y242426D01*
X260938Y241858D01*
X260369Y241118D01*
X260013Y240256D01*
X259891Y239331D01*
Y234212D01*
X260013Y233288D01*
X260369Y232426D01*
X260938Y231685D01*
X261678Y231118D01*
X262540Y230760D01*
X263465Y230639D01*
X264390Y230760D01*
X265251Y231118D01*
X265992Y231685D01*
X266560Y232426D01*
X266917Y233288D01*
X267038Y234212D01*
Y239331D01*
X266917Y240256D01*
X266560Y241118D01*
X265992Y241858D01*
X265251Y242426D01*
X264390Y242783D01*
X263465Y242904D01*
D02*
G37*
G36*
X253465D02*
X252540Y242783D01*
X251678Y242426D01*
X250938Y241858D01*
X250370Y241118D01*
X250012Y240256D01*
X249891Y239331D01*
Y234212D01*
X250012Y233288D01*
X250370Y232426D01*
X250938Y231685D01*
X251678Y231118D01*
X252540Y230760D01*
X253465Y230639D01*
X254390Y230760D01*
X255252Y231118D01*
X255992Y231685D01*
X256560Y232426D01*
X256917Y233288D01*
X257038Y234212D01*
Y239331D01*
X256917Y240256D01*
X256560Y241118D01*
X255992Y241858D01*
X255252Y242426D01*
X254390Y242783D01*
X253465Y242904D01*
D02*
G37*
G36*
X243465D02*
X242540Y242783D01*
X241678Y242426D01*
X240937Y241858D01*
X240370Y241118D01*
X240013Y240256D01*
X239891Y239331D01*
Y234212D01*
X240013Y233288D01*
X240370Y232426D01*
X240937Y231685D01*
X241678Y231118D01*
X242540Y230760D01*
X243465Y230639D01*
X244390Y230760D01*
X245251Y231118D01*
X245992Y231685D01*
X246560Y232426D01*
X246917Y233288D01*
X247039Y234212D01*
Y239331D01*
X246917Y240256D01*
X246560Y241118D01*
X245992Y241858D01*
X245251Y242426D01*
X244390Y242783D01*
X243465Y242904D01*
D02*
G37*
G36*
X203465D02*
X202540Y242783D01*
X201678Y242426D01*
X200938Y241858D01*
X200370Y241118D01*
X200012Y240256D01*
X199891Y239331D01*
Y234212D01*
X200012Y233288D01*
X200370Y232426D01*
X200938Y231685D01*
X201678Y231118D01*
X202540Y230760D01*
X203465Y230639D01*
X204390Y230760D01*
X205252Y231118D01*
X205992Y231685D01*
X206560Y232426D01*
X206917Y233288D01*
X207038Y234212D01*
Y239331D01*
X206917Y240256D01*
X206560Y241118D01*
X205992Y241858D01*
X205252Y242426D01*
X204390Y242783D01*
X203465Y242904D01*
D02*
G37*
G36*
X163465D02*
X162540Y242783D01*
X161678Y242426D01*
X160938Y241858D01*
X160370Y241118D01*
X160012Y240256D01*
X159891Y239331D01*
Y234212D01*
X160012Y233288D01*
X160370Y232426D01*
X160938Y231685D01*
X161678Y231118D01*
X162540Y230760D01*
X163465Y230639D01*
X164390Y230760D01*
X165252Y231118D01*
X165992Y231685D01*
X166560Y232426D01*
X166917Y233288D01*
X167039Y234212D01*
Y239331D01*
X166917Y240256D01*
X166560Y241118D01*
X165992Y241858D01*
X165252Y242426D01*
X164390Y242783D01*
X163465Y242904D01*
D02*
G37*
G36*
X153465D02*
X152540Y242783D01*
X151678Y242426D01*
X150937Y241858D01*
X150370Y241118D01*
X150013Y240256D01*
X149891Y239331D01*
Y234212D01*
X150013Y233288D01*
X150370Y232426D01*
X150937Y231685D01*
X151678Y231118D01*
X152540Y230760D01*
X153465Y230639D01*
X154390Y230760D01*
X155252Y231118D01*
X155992Y231685D01*
X156560Y232426D01*
X156917Y233288D01*
X157038Y234212D01*
Y239331D01*
X156917Y240256D01*
X156560Y241118D01*
X155992Y241858D01*
X155252Y242426D01*
X154390Y242783D01*
X153465Y242904D01*
D02*
G37*
G36*
X143465D02*
X142540Y242783D01*
X141678Y242426D01*
X140937Y241858D01*
X140369Y241118D01*
X140013Y240256D01*
X139891Y239331D01*
Y234212D01*
X140013Y233288D01*
X140369Y232426D01*
X140937Y231685D01*
X141678Y231118D01*
X142540Y230760D01*
X143465Y230639D01*
X144390Y230760D01*
X145252Y231118D01*
X145992Y231685D01*
X146560Y232426D01*
X146917Y233288D01*
X147038Y234212D01*
Y239331D01*
X146917Y240256D01*
X146560Y241118D01*
X145992Y241858D01*
X145252Y242426D01*
X144390Y242783D01*
X143465Y242904D01*
D02*
G37*
G36*
X193465D02*
X192540Y242783D01*
X191678Y242426D01*
X190937Y241858D01*
X190369Y241118D01*
X190013Y240256D01*
X189891Y239331D01*
Y234212D01*
X190013Y233288D01*
X190369Y232426D01*
X190937Y231685D01*
X191678Y231118D01*
X192540Y230760D01*
X193465Y230639D01*
X194390Y230760D01*
X195252Y231118D01*
X195992Y231685D01*
X196560Y232426D01*
X196917Y233288D01*
X197038Y234212D01*
Y239331D01*
X196917Y240256D01*
X196560Y241118D01*
X195992Y241858D01*
X195252Y242426D01*
X194390Y242783D01*
X193465Y242904D01*
D02*
G37*
G36*
X183465D02*
X182540Y242783D01*
X181678Y242426D01*
X180938Y241858D01*
X180369Y241118D01*
X180013Y240256D01*
X179891Y239331D01*
Y234212D01*
X180013Y233288D01*
X180369Y232426D01*
X180938Y231685D01*
X181678Y231118D01*
X182540Y230760D01*
X183465Y230639D01*
X184390Y230760D01*
X185251Y231118D01*
X185992Y231685D01*
X186560Y232426D01*
X186917Y233288D01*
X187039Y234212D01*
Y239331D01*
X186917Y240256D01*
X186560Y241118D01*
X185992Y241858D01*
X185251Y242426D01*
X184390Y242783D01*
X183465Y242904D01*
D02*
G37*
G36*
X173465D02*
X172540Y242783D01*
X171678Y242426D01*
X170938Y241858D01*
X170370Y241118D01*
X170012Y240256D01*
X169891Y239331D01*
Y234212D01*
X170012Y233288D01*
X170370Y232426D01*
X170938Y231685D01*
X171678Y231118D01*
X172540Y230760D01*
X173465Y230639D01*
X174390Y230760D01*
X175251Y231118D01*
X175992Y231685D01*
X176560Y232426D01*
X176917Y233288D01*
X177039Y234212D01*
Y239331D01*
X176917Y240256D01*
X176560Y241118D01*
X175992Y241858D01*
X175251Y242426D01*
X174390Y242783D01*
X173465Y242904D01*
D02*
G37*
G36*
X273465D02*
X272540Y242783D01*
X271678Y242426D01*
X270937Y241858D01*
X270370Y241118D01*
X270012Y240256D01*
X269891Y239331D01*
Y234212D01*
X270012Y233288D01*
X270370Y232426D01*
X270937Y231685D01*
X271678Y231118D01*
X272540Y230760D01*
X273465Y230639D01*
X274390Y230760D01*
X275252Y231118D01*
X275992Y231685D01*
X276560Y232426D01*
X276917Y233288D01*
X277039Y234212D01*
Y239331D01*
X276917Y240256D01*
X276560Y241118D01*
X275992Y241858D01*
X275252Y242426D01*
X274390Y242783D01*
X273465Y242904D01*
D02*
G37*
G36*
X124921Y358600D02*
X123816Y358454D01*
X122787Y358028D01*
X121903Y357349D01*
X121224Y356465D01*
X120798Y355436D01*
X120652Y354331D01*
X120798Y353226D01*
X121224Y352196D01*
X121903Y351312D01*
X122787Y350634D01*
X123816Y350207D01*
X124921Y350062D01*
X126026Y350207D01*
X126354Y350343D01*
X131658Y345039D01*
Y332411D01*
X130938Y331858D01*
X130369Y331118D01*
X130013Y330256D01*
X129891Y329331D01*
Y324213D01*
X130013Y323288D01*
X130369Y322426D01*
X130938Y321685D01*
X131678Y321117D01*
X132540Y320760D01*
X133465Y320639D01*
X134390Y320760D01*
X135251Y321117D01*
X135992Y321685D01*
X136560Y322426D01*
X136917Y323288D01*
X137039Y324213D01*
Y329331D01*
X136917Y330256D01*
X136560Y331118D01*
X135992Y331858D01*
X135271Y332411D01*
Y345787D01*
X135134Y346479D01*
X134742Y347065D01*
X128909Y352898D01*
X129044Y353226D01*
X129190Y354331D01*
X129044Y355436D01*
X128618Y356465D01*
X127940Y357349D01*
X127056Y358028D01*
X126026Y358454D01*
X124921Y358600D01*
D02*
G37*
G36*
X114921D02*
X113816Y358454D01*
X112787Y358028D01*
X111903Y357349D01*
X111224Y356465D01*
X110798Y355436D01*
X110652Y354331D01*
X110798Y353226D01*
X111224Y352196D01*
X111903Y351312D01*
X112787Y350634D01*
X113816Y350207D01*
X114921Y350062D01*
X116026Y350207D01*
X116354Y350343D01*
X121658Y345039D01*
Y332411D01*
X120938Y331858D01*
X120370Y331118D01*
X120012Y330256D01*
X119891Y329331D01*
Y324213D01*
X120012Y323288D01*
X120370Y322426D01*
X120938Y321685D01*
X121678Y321117D01*
X122540Y320760D01*
X123465Y320639D01*
X124390Y320760D01*
X125251Y321117D01*
X125992Y321685D01*
X126560Y322426D01*
X126917Y323288D01*
X127039Y324213D01*
Y329331D01*
X126917Y330256D01*
X126560Y331118D01*
X125992Y331858D01*
X125271Y332411D01*
Y345787D01*
X125134Y346479D01*
X124742Y347065D01*
X118909Y352898D01*
X119044Y353226D01*
X119190Y354331D01*
X119044Y355436D01*
X118618Y356465D01*
X117940Y357349D01*
X117056Y358028D01*
X116026Y358454D01*
X114921Y358600D01*
D02*
G37*
G36*
X104921D02*
X103816Y358454D01*
X102787Y358028D01*
X101903Y357349D01*
X101224Y356465D01*
X100798Y355436D01*
X100652Y354331D01*
X100798Y353226D01*
X101224Y352196D01*
X101903Y351312D01*
X102787Y350634D01*
X103816Y350207D01*
X104921Y350062D01*
X106026Y350207D01*
X106354Y350343D01*
X111658Y345039D01*
Y332411D01*
X110938Y331858D01*
X110370Y331118D01*
X110012Y330256D01*
X109891Y329331D01*
Y324213D01*
X110012Y323288D01*
X110370Y322426D01*
X110938Y321685D01*
X111678Y321117D01*
X112540Y320760D01*
X113465Y320639D01*
X114390Y320760D01*
X115252Y321117D01*
X115992Y321685D01*
X116560Y322426D01*
X116917Y323288D01*
X117039Y324213D01*
Y329331D01*
X116917Y330256D01*
X116560Y331118D01*
X115992Y331858D01*
X115271Y332411D01*
Y345787D01*
X115134Y346479D01*
X114742Y347065D01*
X111745Y350062D01*
X108909Y352898D01*
X109045Y353226D01*
X109190Y354331D01*
X109045Y355436D01*
X108618Y356465D01*
X107940Y357349D01*
X107056Y358028D01*
X106026Y358454D01*
X104921Y358600D01*
D02*
G37*
G36*
X154921D02*
X153816Y358454D01*
X152787Y358028D01*
X151903Y357349D01*
X151224Y356465D01*
X150798Y355436D01*
X150652Y354331D01*
X150798Y353226D01*
X151224Y352196D01*
X151903Y351312D01*
X152787Y350634D01*
X153816Y350207D01*
X154921Y350062D01*
X156026Y350207D01*
X156354Y350343D01*
X161658Y345039D01*
Y332411D01*
X160938Y331858D01*
X160370Y331118D01*
X160012Y330256D01*
X159891Y329331D01*
Y324213D01*
X160012Y323288D01*
X160370Y322426D01*
X160938Y321685D01*
X161678Y321117D01*
X162540Y320760D01*
X163465Y320639D01*
X164390Y320760D01*
X165252Y321117D01*
X165992Y321685D01*
X166560Y322426D01*
X166917Y323288D01*
X167039Y324213D01*
Y329331D01*
X166917Y330256D01*
X166560Y331118D01*
X165992Y331858D01*
X165271Y332411D01*
Y345787D01*
X165134Y346479D01*
X164742Y347065D01*
X158909Y352898D01*
X159045Y353226D01*
X159190Y354331D01*
X159045Y355436D01*
X158618Y356465D01*
X157940Y357349D01*
X157056Y358028D01*
X156026Y358454D01*
X154921Y358600D01*
D02*
G37*
G36*
X144921D02*
X143816Y358454D01*
X142787Y358028D01*
X141903Y357349D01*
X141224Y356465D01*
X140798Y355436D01*
X140652Y354331D01*
X140798Y353226D01*
X141224Y352196D01*
X141903Y351312D01*
X142787Y350634D01*
X143816Y350207D01*
X144921Y350062D01*
X146026Y350207D01*
X146354Y350343D01*
X151658Y345039D01*
Y332411D01*
X150937Y331858D01*
X150370Y331118D01*
X150013Y330256D01*
X149891Y329331D01*
Y324213D01*
X150013Y323288D01*
X150370Y322426D01*
X150937Y321685D01*
X151678Y321117D01*
X152540Y320760D01*
X153465Y320639D01*
X154390Y320760D01*
X155252Y321117D01*
X155992Y321685D01*
X156560Y322426D01*
X156917Y323288D01*
X157038Y324213D01*
Y329331D01*
X156917Y330256D01*
X156560Y331118D01*
X155992Y331858D01*
X155271Y332411D01*
Y345787D01*
X155133Y346479D01*
X154742Y347065D01*
X148909Y352898D01*
X149045Y353226D01*
X149190Y354331D01*
X149045Y355436D01*
X148618Y356465D01*
X147940Y357349D01*
X147056Y358028D01*
X146026Y358454D01*
X144921Y358600D01*
D02*
G37*
G36*
X134921D02*
X133816Y358454D01*
X132787Y358028D01*
X131903Y357349D01*
X131224Y356465D01*
X130798Y355436D01*
X130652Y354331D01*
X130798Y353226D01*
X131224Y352196D01*
X131903Y351312D01*
X132787Y350634D01*
X133816Y350207D01*
X134921Y350062D01*
X136026Y350207D01*
X136354Y350343D01*
X141658Y345039D01*
Y332411D01*
X140937Y331858D01*
X140369Y331118D01*
X140013Y330256D01*
X139891Y329331D01*
Y324213D01*
X140013Y323288D01*
X140369Y322426D01*
X140937Y321685D01*
X141678Y321117D01*
X142540Y320760D01*
X143465Y320639D01*
X144390Y320760D01*
X145252Y321117D01*
X145992Y321685D01*
X146560Y322426D01*
X146917Y323288D01*
X147038Y324213D01*
Y329331D01*
X146917Y330256D01*
X146560Y331118D01*
X145992Y331858D01*
X145271Y332411D01*
Y345787D01*
X145133Y346479D01*
X144742Y347065D01*
X138909Y352898D01*
X139044Y353226D01*
X139190Y354331D01*
X139044Y355436D01*
X138618Y356465D01*
X137940Y357349D01*
X137056Y358028D01*
X136026Y358454D01*
X134921Y358600D01*
D02*
G37*
G36*
X103465Y332905D02*
X102540Y332783D01*
X101678Y332426D01*
X100937Y331858D01*
X100370Y331118D01*
X100013Y330256D01*
X99891Y329331D01*
Y324213D01*
X100013Y323288D01*
X100370Y322426D01*
X100937Y321685D01*
X101678Y321117D01*
X102540Y320760D01*
X103465Y320639D01*
X104390Y320760D01*
X105252Y321117D01*
X105992Y321685D01*
X106560Y322426D01*
X106917Y323288D01*
X107038Y324213D01*
Y329331D01*
X106917Y330256D01*
X106560Y331118D01*
X105992Y331858D01*
X105252Y332426D01*
X104390Y332783D01*
X103465Y332905D01*
D02*
G37*
G36*
X301384Y286811D02*
X297835D01*
Y283262D01*
X298336Y283328D01*
X299353Y283749D01*
X300226Y284420D01*
X300896Y285293D01*
X301318Y286310D01*
X301384Y286811D01*
D02*
G37*
G36*
X296654D02*
X293105D01*
X293171Y286310D01*
X293592Y285293D01*
X294262Y284420D01*
X295136Y283749D01*
X296153Y283328D01*
X296654Y283262D01*
Y286811D01*
D02*
G37*
G36*
X315945Y330544D02*
X314968Y330416D01*
X314059Y330039D01*
X313277Y329439D01*
X312678Y328658D01*
X312301Y327748D01*
X312172Y326772D01*
X312301Y325795D01*
X312678Y324885D01*
X313277Y324104D01*
X314059Y323505D01*
X314138Y323471D01*
Y296260D01*
X314276Y295569D01*
X314668Y294983D01*
X320855Y288795D01*
X320730Y288493D01*
X320586Y287402D01*
X320730Y286310D01*
X320855Y286008D01*
X282187Y247340D01*
X281796Y246754D01*
X281658Y246063D01*
Y242411D01*
X280938Y241858D01*
X280369Y241118D01*
X280012Y240256D01*
X279891Y239331D01*
Y234212D01*
X280012Y233288D01*
X280369Y232426D01*
X280938Y231685D01*
X281678Y231118D01*
X282540Y230760D01*
X283465Y230639D01*
X284390Y230760D01*
X285251Y231118D01*
X285992Y231685D01*
X286560Y232426D01*
X286917Y233288D01*
X287038Y234212D01*
Y239331D01*
X286917Y240256D01*
X286560Y241118D01*
X285992Y241858D01*
X285271Y242411D01*
Y245315D01*
X323410Y283453D01*
X323712Y283328D01*
X324803Y283184D01*
X325895Y283328D01*
X326912Y283749D01*
X327785Y284420D01*
X328455Y285293D01*
X328877Y286310D01*
X329020Y287402D01*
X328877Y288493D01*
X328455Y289510D01*
X327785Y290384D01*
X326912Y291054D01*
X325895Y291475D01*
X324803Y291619D01*
X323712Y291475D01*
X323410Y291350D01*
X317751Y297008D01*
Y323471D01*
X317831Y323505D01*
X318612Y324104D01*
X319212Y324885D01*
X319589Y325795D01*
X319717Y326772D01*
X319589Y327748D01*
X319212Y328658D01*
X318612Y329439D01*
X317831Y330039D01*
X316921Y330416D01*
X315945Y330544D01*
D02*
G37*
G36*
X93465Y332905D02*
X92540Y332783D01*
X91678Y332426D01*
X90938Y331858D01*
X90369Y331118D01*
X90013Y330256D01*
X89891Y329331D01*
Y324213D01*
X90013Y323288D01*
X90369Y322426D01*
X90938Y321685D01*
X91678Y321117D01*
X92540Y320760D01*
X93465Y320639D01*
X94390Y320760D01*
X95252Y321117D01*
X95992Y321685D01*
X96560Y322426D01*
X96917Y323288D01*
X97039Y324213D01*
Y329331D01*
X96917Y330256D01*
X96560Y331118D01*
X95992Y331858D01*
X95252Y332426D01*
X94390Y332783D01*
X93465Y332905D01*
D02*
G37*
G36*
X297835Y291541D02*
Y287992D01*
X301384D01*
X301318Y288493D01*
X300896Y289510D01*
X300226Y290384D01*
X299353Y291054D01*
X298336Y291475D01*
X297835Y291541D01*
D02*
G37*
G36*
X296654D02*
X296153Y291475D01*
X295136Y291054D01*
X294262Y290384D01*
X293592Y289510D01*
X293171Y288493D01*
X293105Y287992D01*
X296654D01*
Y291541D01*
D02*
G37*
%LPD*%
D10*
X114173Y98425D02*
D03*
X82677D02*
D03*
X314961D02*
D03*
X283465D02*
D03*
X248032D02*
D03*
X216535D02*
D03*
X181102D02*
D03*
X149606D02*
D03*
D11*
X315945Y296260D02*
Y326772D01*
Y296260D02*
X324803Y287402D01*
X223671Y204400D02*
X270591Y157480D01*
X180364Y204400D02*
X223671D01*
X172913Y211850D02*
X180364Y204400D01*
X202913Y164291D02*
Y181850D01*
Y164291D02*
X208661Y158543D01*
X83740Y214724D02*
X90176D01*
X141732Y163168D01*
Y158543D02*
Y163168D01*
X68000Y208984D02*
X73740Y214724D01*
X68000Y169284D02*
Y208984D01*
Y169284D02*
X78740Y158543D01*
X73740Y214724D02*
X90266Y231250D01*
X93465D01*
Y236772D01*
X113465Y326772D02*
Y345787D01*
X104921Y354331D02*
X113465Y345787D01*
X123465Y326772D02*
Y345787D01*
X114921Y354331D02*
X123465Y345787D01*
X133465Y326772D02*
Y345787D01*
X124921Y354331D02*
X133465Y345787D01*
X143465Y326772D02*
Y345787D01*
X134921Y354331D02*
X143465Y345787D01*
X153465Y326772D02*
Y345787D01*
X144921Y354331D02*
X153465Y345787D01*
X163465Y326772D02*
Y345787D01*
X154921Y354331D02*
X163465Y345787D01*
X173465Y326772D02*
Y345787D01*
X164921Y354331D02*
X173465Y345787D01*
X183465Y326772D02*
Y345787D01*
X174921Y354331D02*
X183465Y345787D01*
X248032Y98425D02*
Y140748D01*
X249016Y141732D01*
X212913Y170687D02*
Y181850D01*
Y170687D02*
X213900Y169700D01*
Y153782D02*
Y169700D01*
X208661Y148543D02*
X213900Y153782D01*
X181102Y98425D02*
Y140748D01*
X182087Y141732D01*
X314961Y98425D02*
Y138779D01*
X312008Y141732D02*
X314961Y138779D01*
X114173Y98425D02*
Y140748D01*
X115157Y141732D01*
X306102Y296260D02*
Y326772D01*
X297244Y287402D02*
X306102Y296260D01*
X83740Y163307D02*
X105315Y141732D01*
X83740Y163307D02*
Y194724D01*
X231071Y207000D02*
X280591Y157480D01*
X187764Y207000D02*
X231071D01*
X182913Y211850D02*
X187764Y207000D01*
X113465Y200000D02*
Y236772D01*
Y200000D02*
X119265Y194200D01*
X190564D01*
X202913Y181850D01*
X123465Y213635D02*
Y236772D01*
Y213635D02*
X130000Y207100D01*
X168163D01*
X172913Y211850D01*
X103465Y234449D02*
Y236772D01*
X83740Y214724D02*
X103465Y234449D01*
X283465Y236772D02*
Y246063D01*
X324803Y287402D01*
X253465Y326772D02*
Y335709D01*
X234843Y354331D02*
X253465Y335709D01*
X82677Y98425D02*
Y130409D01*
X94000Y141732D01*
X105315D01*
X149606Y98425D02*
Y119094D01*
X172244Y141732D01*
X216535Y98425D02*
Y119094D01*
X239173Y141732D01*
X283465Y98425D02*
Y123031D01*
X302165Y141732D01*
X182087D02*
Y171024D01*
X192913Y181850D01*
X222913Y211850D02*
X227600Y216537D01*
Y351573D01*
X224843Y354331D02*
X227600Y351573D01*
D12*
X83740Y194724D02*
D03*
X73740D02*
D03*
X83740Y204724D02*
D03*
X73740D02*
D03*
X83740Y214724D02*
D03*
D13*
X73740D02*
D03*
D14*
X222913Y211850D02*
D03*
D15*
X212913D02*
D03*
X202913D02*
D03*
X192913D02*
D03*
X182913D02*
D03*
X172913D02*
D03*
X162913D02*
D03*
X222913Y181850D02*
D03*
X212913D02*
D03*
X202913D02*
D03*
X192913D02*
D03*
X182913D02*
D03*
X172913D02*
D03*
X162913D02*
D03*
D16*
X312008Y141732D02*
D03*
X302165D02*
D03*
X182087D02*
D03*
X172244D02*
D03*
X306102Y326772D02*
D03*
X315945D02*
D03*
X146654Y212598D02*
D03*
X136811D02*
D03*
X115157Y141732D02*
D03*
X105315D02*
D03*
X249016D02*
D03*
X239173D02*
D03*
D17*
X280591Y157480D02*
D03*
X270591D02*
D03*
X208661Y148543D02*
D03*
Y158543D02*
D03*
X141732Y148543D02*
D03*
Y158543D02*
D03*
X297244Y287402D02*
D03*
X324803D02*
D03*
X78740Y148543D02*
D03*
Y158543D02*
D03*
D18*
X224843Y354331D02*
D03*
X234843D02*
D03*
X244843D02*
D03*
X254843D02*
D03*
X264843D02*
D03*
X274843D02*
D03*
X284843D02*
D03*
D19*
X294843D02*
D03*
D20*
X93465Y236772D02*
D03*
X103465D02*
D03*
X113465D02*
D03*
X123465D02*
D03*
X133465D02*
D03*
X143465D02*
D03*
X153465D02*
D03*
X163465D02*
D03*
X173465D02*
D03*
X183465D02*
D03*
X193465D02*
D03*
X203465D02*
D03*
X213465D02*
D03*
X223465D02*
D03*
X233465D02*
D03*
X243465D02*
D03*
X253465D02*
D03*
X263465D02*
D03*
X273465D02*
D03*
X283465D02*
D03*
X93465Y326772D02*
D03*
X103465D02*
D03*
X113465D02*
D03*
X123465D02*
D03*
X133465D02*
D03*
X143465D02*
D03*
X153465D02*
D03*
X163465D02*
D03*
X173465D02*
D03*
X183465D02*
D03*
X193465D02*
D03*
X203465D02*
D03*
X213465D02*
D03*
X223465D02*
D03*
X233465D02*
D03*
X243465D02*
D03*
X253465D02*
D03*
X263465D02*
D03*
X273465D02*
D03*
D21*
X283465D02*
D03*
D22*
X174921Y354331D02*
D03*
D23*
X164921D02*
D03*
X154921D02*
D03*
X144921D02*
D03*
X134921D02*
D03*
X124921D02*
D03*
X114921D02*
D03*
X104921D02*
D03*
X94921D02*
D03*
X84921D02*
D03*
M02*
