M48
;Layer_Color=6321
;FILE_FORMAT=2:5
INCH,LZ
;TYPE=PLATED
T1F00S00C0.02500
T2F00S00C0.02756
T3F00S00C0.03000
T4F00S00C0.03150
T5F00S00C0.03543
T6F00S00C0.03937
T7F00S00C0.04134
%
T01
X007874Y0148543
X0141732
X0208661
Y0158543
X0270591Y015748
X0280591
X0141732Y0158543
X007874
T02
X0105315Y0141732
X0115157
X0172244
X0182087
X0239173
X0249016
X0302165
X0312008
X0146654Y0212598
X0136811
X0306102Y0326772
X0315945
T03
X0324803Y0287402
X0297244
T04
X0163465Y0236772
X0173465
X0183465
X0193465
X0203465
X0213465
X0223465
X0233465
X0243465
X0253465
X0263465
X0273465
X0283465
X0153465
X0143465
X0133465
X0123465
X0113465
X0103465
X0093465
Y0326772
X0103465
X0113465
X0123465
X0133465
X0143465
X0153465
X0163465
X0173465
X0183465
X0193465
X0203465
X0213465
X0223465
X0233465
X0243465
X0253465
X0263465
X0273465
X0283465
X0284843Y0354331
X0274843
X0264843
X0254843
X0244843
X0234843
X0224843
X0294843
T05
X0162913Y018185
X0172913
X0182913
X0192913
X0202913
X0212913
X0222913
Y021185
X0212913
X0202913
X0192913
X0182913
X0172913
X0162913
T06
X007374Y0194724
X008374
Y0204724
X007374
Y0214724
X008374
T07
X0084921Y0354331
X0094921
X0104921
X0114921
X0124921
X0134921
X0144921
X0154921
X0164921
X0174921
M30
